<mxfile host="app.diagrams.net" modified="2023-11-20T08:53:00.485Z" agent="Mozilla/5.0 (Windows NT 10.0; Win64; x64) AppleWebKit/537.36 (KHTML, like Gecko) Chrome/119.0.0.0 Safari/537.36" etag="c9GAVFBgo2dqKwCH0OZg" version="22.1.3" type="device" pages="2">
  <diagram name="Sequence diagram" id="qb-fEzOXYdz-C_OGCxin">
    <mxGraphModel dx="1138" dy="624" grid="1" gridSize="10" guides="1" tooltips="1" connect="1" arrows="1" fold="1" page="1" pageScale="1" pageWidth="3300" pageHeight="4681" math="0" shadow="0">
      <root>
        <mxCell id="0" />
        <mxCell id="1" parent="0" />
        <mxCell id="9B1q4WMU_UWnrOGWX7Mk-286" value="Ghi,chọn thông tin tìm kiếm&amp;nbsp;" style="endArrow=block;endSize=16;endFill=0;html=1;rounded=0;" parent="1" edge="1">
          <mxGeometry width="160" relative="1" as="geometry">
            <mxPoint x="4538.997619047618" y="319" as="sourcePoint" />
            <mxPoint x="4723" y="319" as="targetPoint" />
          </mxGeometry>
        </mxCell>
        <mxCell id="9B1q4WMU_UWnrOGWX7Mk-60" value="Click nút sửa" style="endArrow=block;endSize=16;endFill=0;html=1;rounded=0;" parent="1" edge="1">
          <mxGeometry width="160" relative="1" as="geometry">
            <mxPoint x="321" y="1219.13" as="sourcePoint" />
            <mxPoint x="501" y="1219.13" as="targetPoint" />
          </mxGeometry>
        </mxCell>
        <mxCell id="9B1q4WMU_UWnrOGWX7Mk-58" value="Click nút xem" style="endArrow=block;endSize=16;endFill=0;html=1;rounded=0;" parent="1" edge="1">
          <mxGeometry width="160" relative="1" as="geometry">
            <mxPoint x="322" y="1864" as="sourcePoint" />
            <mxPoint x="502" y="1864" as="targetPoint" />
          </mxGeometry>
        </mxCell>
        <mxCell id="9B1q4WMU_UWnrOGWX7Mk-59" value="Click vào khách hàng" style="endArrow=block;endSize=16;endFill=0;html=1;rounded=0;" parent="1" edge="1">
          <mxGeometry width="160" relative="1" as="geometry">
            <mxPoint x="322" y="1806" as="sourcePoint" />
            <mxPoint x="502" y="1806" as="targetPoint" />
          </mxGeometry>
        </mxCell>
        <mxCell id="ymZXKqMTI3oLETOlow5w-2" value="Quản Lý" style="shape=umlActor;verticalLabelPosition=bottom;verticalAlign=top;html=1;outlineConnect=0;" parent="1" vertex="1">
          <mxGeometry x="306" y="140" width="30" height="60" as="geometry" />
        </mxCell>
        <mxCell id="ymZXKqMTI3oLETOlow5w-6" value="" style="endArrow=none;dashed=1;html=1;rounded=0;" parent="1" source="ymZXKqMTI3oLETOlow5w-2" edge="1">
          <mxGeometry width="50" height="50" relative="1" as="geometry">
            <mxPoint x="140" y="530" as="sourcePoint" />
            <mxPoint x="320" y="360" as="targetPoint" />
          </mxGeometry>
        </mxCell>
        <mxCell id="ymZXKqMTI3oLETOlow5w-7" value="Trang Khách Hàng" style="shape=umlLifeline;perimeter=lifelinePerimeter;whiteSpace=wrap;html=1;container=1;dropTarget=0;collapsible=0;recursiveResize=0;outlineConnect=0;portConstraint=eastwest;newEdgeStyle={&quot;curved&quot;:0,&quot;rounded&quot;:0};" parent="1" vertex="1">
          <mxGeometry x="450" y="160" width="100" height="200" as="geometry" />
        </mxCell>
        <mxCell id="ymZXKqMTI3oLETOlow5w-8" value="Phương thức tìm kiếm" style="shape=umlLifeline;perimeter=lifelinePerimeter;whiteSpace=wrap;html=1;container=1;dropTarget=0;collapsible=0;recursiveResize=0;outlineConnect=0;portConstraint=eastwest;newEdgeStyle={&quot;curved&quot;:0,&quot;rounded&quot;:0};" parent="1" vertex="1">
          <mxGeometry x="670" y="160" width="100" height="200" as="geometry" />
        </mxCell>
        <mxCell id="ymZXKqMTI3oLETOlow5w-9" value="Database" style="shape=umlLifeline;perimeter=lifelinePerimeter;whiteSpace=wrap;html=1;container=1;dropTarget=0;collapsible=0;recursiveResize=0;outlineConnect=0;portConstraint=eastwest;newEdgeStyle={&quot;curved&quot;:0,&quot;rounded&quot;:0};" parent="1" vertex="1">
          <mxGeometry x="870" y="160" width="100" height="200" as="geometry" />
        </mxCell>
        <mxCell id="ymZXKqMTI3oLETOlow5w-11" value="Ghi, chọn nội dung tìm kiếm" style="endArrow=block;endSize=16;endFill=0;html=1;rounded=0;" parent="1" edge="1">
          <mxGeometry width="160" relative="1" as="geometry">
            <mxPoint x="320" y="230" as="sourcePoint" />
            <mxPoint x="500" y="230" as="targetPoint" />
          </mxGeometry>
        </mxCell>
        <mxCell id="ymZXKqMTI3oLETOlow5w-13" value="gọi hàm SearchKh()" style="endArrow=block;endSize=16;endFill=0;html=1;rounded=0;" parent="1" source="ymZXKqMTI3oLETOlow5w-7" edge="1">
          <mxGeometry width="160" relative="1" as="geometry">
            <mxPoint x="520" y="238" as="sourcePoint" />
            <mxPoint x="719.5" y="238" as="targetPoint" />
          </mxGeometry>
        </mxCell>
        <mxCell id="ymZXKqMTI3oLETOlow5w-15" value="Truy vấn cơ sở dữ liệu" style="endArrow=block;endSize=16;endFill=0;html=1;rounded=0;" parent="1" source="ymZXKqMTI3oLETOlow5w-8" edge="1">
          <mxGeometry width="160" relative="1" as="geometry">
            <mxPoint x="720" y="248" as="sourcePoint" />
            <mxPoint x="920" y="248" as="targetPoint" />
          </mxGeometry>
        </mxCell>
        <mxCell id="ymZXKqMTI3oLETOlow5w-16" value="Trả về khách hàng tìm được" style="endArrow=open;endSize=12;dashed=1;html=1;rounded=0;" parent="1" edge="1">
          <mxGeometry width="160" relative="1" as="geometry">
            <mxPoint x="919.5" y="280" as="sourcePoint" />
            <mxPoint x="719.5" y="280" as="targetPoint" />
          </mxGeometry>
        </mxCell>
        <mxCell id="ymZXKqMTI3oLETOlow5w-17" value="Trả về khách hàng tìm được lên table" style="endArrow=open;endSize=12;dashed=1;html=1;rounded=0;" parent="1" target="ymZXKqMTI3oLETOlow5w-7" edge="1">
          <mxGeometry width="160" relative="1" as="geometry">
            <mxPoint x="719.5" y="292" as="sourcePoint" />
            <mxPoint x="519.5" y="292" as="targetPoint" />
          </mxGeometry>
        </mxCell>
        <mxCell id="ymZXKqMTI3oLETOlow5w-19" value="" style="whiteSpace=wrap;html=1;labelPosition=center;verticalLabelPosition=middle;align=center;verticalAlign=bottom;" parent="1" vertex="1">
          <mxGeometry x="915" y="250" width="10" height="30" as="geometry" />
        </mxCell>
        <mxCell id="ymZXKqMTI3oLETOlow5w-20" value="Tìm kiếm khách hàng" style="shape=umlFrame;whiteSpace=wrap;html=1;pointerEvents=0;width=190;height=30;" parent="1" vertex="1">
          <mxGeometry x="230" y="100" width="800" height="300" as="geometry" />
        </mxCell>
        <mxCell id="ymZXKqMTI3oLETOlow5w-33" value="Quản Lý" style="shape=umlActor;verticalLabelPosition=bottom;verticalAlign=top;html=1;outlineConnect=0;" parent="1" vertex="1">
          <mxGeometry x="306" y="520" width="30" height="60" as="geometry" />
        </mxCell>
        <mxCell id="ymZXKqMTI3oLETOlow5w-34" value="" style="endArrow=none;dashed=1;html=1;rounded=0;" parent="1" source="ymZXKqMTI3oLETOlow5w-33" edge="1">
          <mxGeometry width="50" height="50" relative="1" as="geometry">
            <mxPoint x="140" y="910" as="sourcePoint" />
            <mxPoint x="320" y="860" as="targetPoint" />
          </mxGeometry>
        </mxCell>
        <mxCell id="ymZXKqMTI3oLETOlow5w-35" value="Trang Khách Hàng" style="shape=umlLifeline;perimeter=lifelinePerimeter;whiteSpace=wrap;html=1;container=1;dropTarget=0;collapsible=0;recursiveResize=0;outlineConnect=0;portConstraint=eastwest;newEdgeStyle={&quot;curved&quot;:0,&quot;rounded&quot;:0};" parent="1" vertex="1">
          <mxGeometry x="450" y="540" width="100" height="340" as="geometry" />
        </mxCell>
        <mxCell id="ymZXKqMTI3oLETOlow5w-36" value="Trang thêm khách hàng" style="shape=umlLifeline;perimeter=lifelinePerimeter;whiteSpace=wrap;html=1;container=1;dropTarget=0;collapsible=0;recursiveResize=0;outlineConnect=0;portConstraint=eastwest;newEdgeStyle={&quot;curved&quot;:0,&quot;rounded&quot;:0};" parent="1" vertex="1">
          <mxGeometry x="670" y="540" width="100" height="340" as="geometry" />
        </mxCell>
        <mxCell id="ymZXKqMTI3oLETOlow5w-37" value="Database" style="shape=umlLifeline;perimeter=lifelinePerimeter;whiteSpace=wrap;html=1;container=1;dropTarget=0;collapsible=0;recursiveResize=0;outlineConnect=0;portConstraint=eastwest;newEdgeStyle={&quot;curved&quot;:0,&quot;rounded&quot;:0};" parent="1" vertex="1">
          <mxGeometry x="1050" y="540" width="100" height="340" as="geometry" />
        </mxCell>
        <mxCell id="ymZXKqMTI3oLETOlow5w-38" value="Click nút thêm" style="endArrow=block;endSize=16;endFill=0;html=1;rounded=0;" parent="1" edge="1">
          <mxGeometry width="160" relative="1" as="geometry">
            <mxPoint x="320" y="634" as="sourcePoint" />
            <mxPoint x="500" y="634" as="targetPoint" />
          </mxGeometry>
        </mxCell>
        <mxCell id="ymZXKqMTI3oLETOlow5w-39" value="Gọi trang thêm khách hàng" style="endArrow=block;endSize=16;endFill=0;html=1;rounded=0;" parent="1" edge="1">
          <mxGeometry width="160" relative="1" as="geometry">
            <mxPoint x="499.5" y="645" as="sourcePoint" />
            <mxPoint x="719.5" y="645" as="targetPoint" />
          </mxGeometry>
        </mxCell>
        <mxCell id="ymZXKqMTI3oLETOlow5w-45" value="Phương thức thêm khách hàng" style="shape=umlLifeline;perimeter=lifelinePerimeter;whiteSpace=wrap;html=1;container=1;dropTarget=0;collapsible=0;recursiveResize=0;outlineConnect=0;portConstraint=eastwest;newEdgeStyle={&quot;curved&quot;:0,&quot;rounded&quot;:0};" parent="1" vertex="1">
          <mxGeometry x="850" y="540" width="100" height="320" as="geometry" />
        </mxCell>
        <mxCell id="ymZXKqMTI3oLETOlow5w-46" value="Ghi thông tin khách hàng và click nút thêm" style="endArrow=block;endSize=16;endFill=0;html=1;rounded=0;" parent="1" edge="1">
          <mxGeometry width="160" relative="1" as="geometry">
            <mxPoint x="320" y="710" as="sourcePoint" />
            <mxPoint x="719.5" y="710" as="targetPoint" />
          </mxGeometry>
        </mxCell>
        <mxCell id="ymZXKqMTI3oLETOlow5w-47" value="Thêm khách hàng" style="shape=umlFrame;whiteSpace=wrap;html=1;pointerEvents=0;width=190;height=30;" parent="1" vertex="1">
          <mxGeometry x="180" y="470" width="980" height="450" as="geometry" />
        </mxCell>
        <mxCell id="ymZXKqMTI3oLETOlow5w-48" value="Khách Hàng" style="shape=umlActor;verticalLabelPosition=bottom;verticalAlign=top;html=1;outlineConnect=0;" parent="1" vertex="1">
          <mxGeometry x="100" y="520" width="30" height="60" as="geometry" />
        </mxCell>
        <mxCell id="ymZXKqMTI3oLETOlow5w-49" value="" style="endArrow=none;dashed=1;html=1;rounded=0;" parent="1" source="ymZXKqMTI3oLETOlow5w-68" edge="1">
          <mxGeometry width="50" height="50" relative="1" as="geometry">
            <mxPoint x="-66" y="910" as="sourcePoint" />
            <mxPoint x="115" y="880" as="targetPoint" />
          </mxGeometry>
        </mxCell>
        <mxCell id="ymZXKqMTI3oLETOlow5w-50" value="Yêu cầu đăng ký &lt;br&gt;khách hàng thân thiết" style="endArrow=block;endSize=16;endFill=0;html=1;rounded=0;exitX=0.25;exitY=0;exitDx=0;exitDy=0;" parent="1" source="ymZXKqMTI3oLETOlow5w-68" edge="1">
          <mxGeometry width="160" relative="1" as="geometry">
            <mxPoint x="160" y="620" as="sourcePoint" />
            <mxPoint x="320" y="620" as="targetPoint" />
          </mxGeometry>
        </mxCell>
        <mxCell id="ymZXKqMTI3oLETOlow5w-51" value="Hiện Trang thêm khách khàng" style="endArrow=open;endSize=12;dashed=1;html=1;rounded=0;" parent="1" source="ymZXKqMTI3oLETOlow5w-36" edge="1">
          <mxGeometry width="160" relative="1" as="geometry">
            <mxPoint x="390" y="650" as="sourcePoint" />
            <mxPoint x="320" y="670" as="targetPoint" />
          </mxGeometry>
        </mxCell>
        <mxCell id="ymZXKqMTI3oLETOlow5w-53" value="yêu cầu đọc thông tin" style="endArrow=open;endSize=12;dashed=1;html=1;rounded=0;entryX=1;entryY=0.75;entryDx=0;entryDy=0;" parent="1" target="ymZXKqMTI3oLETOlow5w-68" edge="1">
          <mxGeometry width="160" relative="1" as="geometry">
            <mxPoint x="316" y="680" as="sourcePoint" />
            <mxPoint x="160" y="680" as="targetPoint" />
          </mxGeometry>
        </mxCell>
        <mxCell id="ymZXKqMTI3oLETOlow5w-54" value="Đọc thông tin" style="endArrow=block;endSize=16;endFill=0;html=1;rounded=0;exitX=0.75;exitY=1;exitDx=0;exitDy=0;" parent="1" source="ymZXKqMTI3oLETOlow5w-68" edge="1">
          <mxGeometry width="160" relative="1" as="geometry">
            <mxPoint x="160" y="700" as="sourcePoint" />
            <mxPoint x="320" y="700" as="targetPoint" />
          </mxGeometry>
        </mxCell>
        <mxCell id="ymZXKqMTI3oLETOlow5w-55" value="Gọi phương thức thêm" style="endArrow=block;endSize=16;endFill=0;html=1;rounded=0;" parent="1" target="ymZXKqMTI3oLETOlow5w-45" edge="1">
          <mxGeometry width="160" relative="1" as="geometry">
            <mxPoint x="720" y="720" as="sourcePoint" />
            <mxPoint x="880" y="720" as="targetPoint" />
          </mxGeometry>
        </mxCell>
        <mxCell id="ymZXKqMTI3oLETOlow5w-56" value="Thêm vào cơ sở dữ liệu" style="endArrow=block;endSize=16;endFill=0;html=1;rounded=0;" parent="1" edge="1">
          <mxGeometry width="160" relative="1" as="geometry">
            <mxPoint x="905" y="843" as="sourcePoint" />
            <mxPoint x="1104.5" y="843" as="targetPoint" />
            <Array as="points">
              <mxPoint x="935" y="843" />
            </Array>
          </mxGeometry>
        </mxCell>
        <mxCell id="ymZXKqMTI3oLETOlow5w-57" value="Thông báo thêm thành công" style="endArrow=open;endSize=12;dashed=1;html=1;rounded=0;" parent="1" edge="1">
          <mxGeometry width="160" relative="1" as="geometry">
            <mxPoint x="899.5" y="873" as="sourcePoint" />
            <mxPoint x="320" y="873" as="targetPoint" />
          </mxGeometry>
        </mxCell>
        <mxCell id="ymZXKqMTI3oLETOlow5w-58" value="Cập nhật thành công" style="endArrow=open;endSize=12;dashed=1;html=1;rounded=0;" parent="1" edge="1">
          <mxGeometry width="160" relative="1" as="geometry">
            <mxPoint x="1099.5" y="865" as="sourcePoint" />
            <mxPoint x="900" y="865" as="targetPoint" />
          </mxGeometry>
        </mxCell>
        <mxCell id="ymZXKqMTI3oLETOlow5w-59" value="" style="whiteSpace=wrap;html=1;labelPosition=center;verticalLabelPosition=middle;align=center;verticalAlign=bottom;" parent="1" vertex="1">
          <mxGeometry x="715" y="235" width="10" height="65" as="geometry" />
        </mxCell>
        <mxCell id="ymZXKqMTI3oLETOlow5w-61" value="" style="whiteSpace=wrap;html=1;labelPosition=center;verticalLabelPosition=middle;align=center;verticalAlign=bottom;" parent="1" vertex="1">
          <mxGeometry x="495" y="230" width="10" height="60" as="geometry" />
        </mxCell>
        <mxCell id="ymZXKqMTI3oLETOlow5w-62" value="" style="whiteSpace=wrap;html=1;labelPosition=center;verticalLabelPosition=middle;align=center;verticalAlign=bottom;" parent="1" vertex="1">
          <mxGeometry x="316" y="220" width="10" height="140" as="geometry" />
        </mxCell>
        <mxCell id="ymZXKqMTI3oLETOlow5w-63" value="" style="whiteSpace=wrap;html=1;labelPosition=center;verticalLabelPosition=middle;align=center;verticalAlign=bottom;" parent="1" vertex="1">
          <mxGeometry x="316" y="610" width="10" height="270" as="geometry" />
        </mxCell>
        <mxCell id="ymZXKqMTI3oLETOlow5w-64" value="" style="whiteSpace=wrap;html=1;labelPosition=center;verticalLabelPosition=middle;align=center;verticalAlign=bottom;" parent="1" vertex="1">
          <mxGeometry x="495" y="630" width="10" height="20" as="geometry" />
        </mxCell>
        <mxCell id="ymZXKqMTI3oLETOlow5w-65" value="" style="whiteSpace=wrap;html=1;labelPosition=center;verticalLabelPosition=middle;align=center;verticalAlign=bottom;" parent="1" vertex="1">
          <mxGeometry x="715" y="640" width="10" height="80" as="geometry" />
        </mxCell>
        <mxCell id="ymZXKqMTI3oLETOlow5w-67" value="" style="whiteSpace=wrap;html=1;labelPosition=center;verticalLabelPosition=middle;align=center;verticalAlign=bottom;" parent="1" vertex="1">
          <mxGeometry x="1095" y="836" width="10" height="30" as="geometry" />
        </mxCell>
        <mxCell id="ymZXKqMTI3oLETOlow5w-69" value="" style="endArrow=none;dashed=1;html=1;rounded=0;" parent="1" source="ymZXKqMTI3oLETOlow5w-48" target="ymZXKqMTI3oLETOlow5w-68" edge="1">
          <mxGeometry width="50" height="50" relative="1" as="geometry">
            <mxPoint x="115" y="580" as="sourcePoint" />
            <mxPoint x="114" y="800" as="targetPoint" />
          </mxGeometry>
        </mxCell>
        <mxCell id="ymZXKqMTI3oLETOlow5w-68" value="" style="whiteSpace=wrap;html=1;labelPosition=center;verticalLabelPosition=middle;align=center;verticalAlign=bottom;" parent="1" vertex="1">
          <mxGeometry x="110" y="620" width="10" height="80" as="geometry" />
        </mxCell>
        <mxCell id="ymZXKqMTI3oLETOlow5w-74" value="" style="endArrow=none;dashed=1;html=1;rounded=0;exitX=0.001;exitY=0.613;exitDx=0;exitDy=0;exitPerimeter=0;entryX=1;entryY=0.571;entryDx=0;entryDy=0;entryPerimeter=0;" parent="1" edge="1">
          <mxGeometry width="50" height="50" relative="1" as="geometry">
            <mxPoint x="220.91000000000008" y="821.21" as="sourcePoint" />
            <mxPoint x="1130" y="819.0699999999999" as="targetPoint" />
          </mxGeometry>
        </mxCell>
        <mxCell id="ymZXKqMTI3oLETOlow5w-73" value="kiểm tra ghi đủ các trường" style="shape=umlFrame;whiteSpace=wrap;html=1;pointerEvents=0;width=100;height=30;" parent="1" vertex="1">
          <mxGeometry x="210" y="730" width="920" height="170" as="geometry" />
        </mxCell>
        <mxCell id="ymZXKqMTI3oLETOlow5w-66" value="" style="whiteSpace=wrap;html=1;labelPosition=center;verticalLabelPosition=middle;align=center;verticalAlign=bottom;" parent="1" vertex="1">
          <mxGeometry x="895" y="720" width="10" height="160" as="geometry" />
        </mxCell>
        <mxCell id="ymZXKqMTI3oLETOlow5w-78" value="thiếu dữ liêu&lt;br&gt;hoặc sai &lt;br&gt;định dạng" style="text;html=1;align=center;verticalAlign=middle;resizable=0;points=[];autosize=1;strokeColor=none;fillColor=none;" parent="1" vertex="1">
          <mxGeometry x="220" y="760" width="90" height="60" as="geometry" />
        </mxCell>
        <mxCell id="ymZXKqMTI3oLETOlow5w-79" value="else" style="text;html=1;align=center;verticalAlign=middle;resizable=0;points=[];autosize=1;strokeColor=none;fillColor=none;" parent="1" vertex="1">
          <mxGeometry x="235" y="848" width="50" height="30" as="geometry" />
        </mxCell>
        <mxCell id="ymZXKqMTI3oLETOlow5w-72" value="thông báo sai định dạng hoặc thiếu trường dữ liệu" style="endArrow=open;endSize=12;dashed=1;html=1;rounded=0;" parent="1" edge="1">
          <mxGeometry width="160" relative="1" as="geometry">
            <mxPoint x="900" y="770" as="sourcePoint" />
            <mxPoint x="320" y="770" as="targetPoint" />
          </mxGeometry>
        </mxCell>
        <mxCell id="9B1q4WMU_UWnrOGWX7Mk-1" value="Quản Lý" style="shape=umlActor;verticalLabelPosition=bottom;verticalAlign=top;html=1;outlineConnect=0;" parent="1" vertex="1">
          <mxGeometry x="306" y="1100" width="30" height="60" as="geometry" />
        </mxCell>
        <mxCell id="9B1q4WMU_UWnrOGWX7Mk-2" value="" style="endArrow=none;dashed=1;html=1;rounded=0;" parent="1" source="9B1q4WMU_UWnrOGWX7Mk-1" edge="1">
          <mxGeometry width="50" height="50" relative="1" as="geometry">
            <mxPoint x="140" y="1490" as="sourcePoint" />
            <mxPoint x="320" y="1440" as="targetPoint" />
          </mxGeometry>
        </mxCell>
        <mxCell id="9B1q4WMU_UWnrOGWX7Mk-3" value="Trang Khách Hàng" style="shape=umlLifeline;perimeter=lifelinePerimeter;whiteSpace=wrap;html=1;container=1;dropTarget=0;collapsible=0;recursiveResize=0;outlineConnect=0;portConstraint=eastwest;newEdgeStyle={&quot;curved&quot;:0,&quot;rounded&quot;:0};" parent="1" vertex="1">
          <mxGeometry x="450" y="1120" width="100" height="340" as="geometry" />
        </mxCell>
        <mxCell id="9B1q4WMU_UWnrOGWX7Mk-4" value="Trang sửa khách hàng" style="shape=umlLifeline;perimeter=lifelinePerimeter;whiteSpace=wrap;html=1;container=1;dropTarget=0;collapsible=0;recursiveResize=0;outlineConnect=0;portConstraint=eastwest;newEdgeStyle={&quot;curved&quot;:0,&quot;rounded&quot;:0};" parent="1" vertex="1">
          <mxGeometry x="670" y="1120" width="100" height="340" as="geometry" />
        </mxCell>
        <mxCell id="9B1q4WMU_UWnrOGWX7Mk-5" value="Database" style="shape=umlLifeline;perimeter=lifelinePerimeter;whiteSpace=wrap;html=1;container=1;dropTarget=0;collapsible=0;recursiveResize=0;outlineConnect=0;portConstraint=eastwest;newEdgeStyle={&quot;curved&quot;:0,&quot;rounded&quot;:0};" parent="1" vertex="1">
          <mxGeometry x="1050" y="1120" width="100" height="340" as="geometry" />
        </mxCell>
        <mxCell id="9B1q4WMU_UWnrOGWX7Mk-6" value="Click vào khách hàng" style="endArrow=block;endSize=16;endFill=0;html=1;rounded=0;" parent="1" edge="1">
          <mxGeometry width="160" relative="1" as="geometry">
            <mxPoint x="321" y="1190" as="sourcePoint" />
            <mxPoint x="501" y="1190" as="targetPoint" />
          </mxGeometry>
        </mxCell>
        <mxCell id="9B1q4WMU_UWnrOGWX7Mk-7" value="Gọi trang sửa khách hàng" style="endArrow=block;endSize=16;endFill=0;html=1;rounded=0;" parent="1" edge="1">
          <mxGeometry width="160" relative="1" as="geometry">
            <mxPoint x="499.5" y="1225" as="sourcePoint" />
            <mxPoint x="719.5" y="1225" as="targetPoint" />
          </mxGeometry>
        </mxCell>
        <mxCell id="9B1q4WMU_UWnrOGWX7Mk-8" value="Phương thức sửa khách hàng" style="shape=umlLifeline;perimeter=lifelinePerimeter;whiteSpace=wrap;html=1;container=1;dropTarget=0;collapsible=0;recursiveResize=0;outlineConnect=0;portConstraint=eastwest;newEdgeStyle={&quot;curved&quot;:0,&quot;rounded&quot;:0};" parent="1" vertex="1">
          <mxGeometry x="850" y="1120" width="100" height="320" as="geometry" />
        </mxCell>
        <mxCell id="9B1q4WMU_UWnrOGWX7Mk-9" value="Ghi thông tin mới khách hàng và click nút sửa" style="endArrow=block;endSize=16;endFill=0;html=1;rounded=0;" parent="1" edge="1">
          <mxGeometry width="160" relative="1" as="geometry">
            <mxPoint x="320" y="1290" as="sourcePoint" />
            <mxPoint x="719.5" y="1290" as="targetPoint" />
          </mxGeometry>
        </mxCell>
        <mxCell id="9B1q4WMU_UWnrOGWX7Mk-10" value="Sửa khách hàng" style="shape=umlFrame;whiteSpace=wrap;html=1;pointerEvents=0;width=190;height=30;" parent="1" vertex="1">
          <mxGeometry x="180" y="1050" width="980" height="450" as="geometry" />
        </mxCell>
        <mxCell id="9B1q4WMU_UWnrOGWX7Mk-14" value="Hiện Trang sửa khách khàng" style="endArrow=open;endSize=12;dashed=1;html=1;rounded=0;" parent="1" source="9B1q4WMU_UWnrOGWX7Mk-4" edge="1">
          <mxGeometry width="160" relative="1" as="geometry">
            <mxPoint x="390" y="1230" as="sourcePoint" />
            <mxPoint x="320" y="1250" as="targetPoint" />
          </mxGeometry>
        </mxCell>
        <mxCell id="9B1q4WMU_UWnrOGWX7Mk-17" value="Gọi phương thức sửa" style="endArrow=block;endSize=16;endFill=0;html=1;rounded=0;" parent="1" target="9B1q4WMU_UWnrOGWX7Mk-8" edge="1">
          <mxGeometry width="160" relative="1" as="geometry">
            <mxPoint x="720" y="1300" as="sourcePoint" />
            <mxPoint x="880" y="1300" as="targetPoint" />
          </mxGeometry>
        </mxCell>
        <mxCell id="9B1q4WMU_UWnrOGWX7Mk-18" value="sửa cơ sở dữ liệu" style="endArrow=block;endSize=16;endFill=0;html=1;rounded=0;" parent="1" edge="1">
          <mxGeometry width="160" relative="1" as="geometry">
            <mxPoint x="905" y="1423" as="sourcePoint" />
            <mxPoint x="1104.5" y="1423" as="targetPoint" />
            <Array as="points">
              <mxPoint x="935" y="1423" />
            </Array>
          </mxGeometry>
        </mxCell>
        <mxCell id="9B1q4WMU_UWnrOGWX7Mk-19" value="Thông báo sửa thành công" style="endArrow=open;endSize=12;dashed=1;html=1;rounded=0;" parent="1" edge="1">
          <mxGeometry width="160" relative="1" as="geometry">
            <mxPoint x="899.5" y="1453" as="sourcePoint" />
            <mxPoint x="320" y="1453" as="targetPoint" />
          </mxGeometry>
        </mxCell>
        <mxCell id="9B1q4WMU_UWnrOGWX7Mk-20" value="Cập nhật thành công" style="endArrow=open;endSize=12;dashed=1;html=1;rounded=0;" parent="1" edge="1">
          <mxGeometry width="160" relative="1" as="geometry">
            <mxPoint x="1099.5" y="1445" as="sourcePoint" />
            <mxPoint x="900" y="1445" as="targetPoint" />
          </mxGeometry>
        </mxCell>
        <mxCell id="9B1q4WMU_UWnrOGWX7Mk-21" value="" style="whiteSpace=wrap;html=1;labelPosition=center;verticalLabelPosition=middle;align=center;verticalAlign=bottom;" parent="1" vertex="1">
          <mxGeometry x="316" y="1190" width="10" height="270" as="geometry" />
        </mxCell>
        <mxCell id="9B1q4WMU_UWnrOGWX7Mk-22" value="" style="whiteSpace=wrap;html=1;labelPosition=center;verticalLabelPosition=middle;align=center;verticalAlign=bottom;" parent="1" vertex="1">
          <mxGeometry x="495" y="1190" width="10" height="40" as="geometry" />
        </mxCell>
        <mxCell id="9B1q4WMU_UWnrOGWX7Mk-23" value="" style="whiteSpace=wrap;html=1;labelPosition=center;verticalLabelPosition=middle;align=center;verticalAlign=bottom;" parent="1" vertex="1">
          <mxGeometry x="715" y="1220" width="10" height="80" as="geometry" />
        </mxCell>
        <mxCell id="9B1q4WMU_UWnrOGWX7Mk-24" value="" style="whiteSpace=wrap;html=1;labelPosition=center;verticalLabelPosition=middle;align=center;verticalAlign=bottom;" parent="1" vertex="1">
          <mxGeometry x="1095" y="1416" width="10" height="30" as="geometry" />
        </mxCell>
        <mxCell id="9B1q4WMU_UWnrOGWX7Mk-27" value="" style="endArrow=none;dashed=1;html=1;rounded=0;exitX=0.001;exitY=0.613;exitDx=0;exitDy=0;exitPerimeter=0;entryX=1;entryY=0.571;entryDx=0;entryDy=0;entryPerimeter=0;" parent="1" edge="1">
          <mxGeometry width="50" height="50" relative="1" as="geometry">
            <mxPoint x="220.91000000000008" y="1401.21" as="sourcePoint" />
            <mxPoint x="1130" y="1399.07" as="targetPoint" />
          </mxGeometry>
        </mxCell>
        <mxCell id="9B1q4WMU_UWnrOGWX7Mk-28" value="kiểm tra ghi đủ các trường" style="shape=umlFrame;whiteSpace=wrap;html=1;pointerEvents=0;width=100;height=30;" parent="1" vertex="1">
          <mxGeometry x="210" y="1310" width="920" height="170" as="geometry" />
        </mxCell>
        <mxCell id="9B1q4WMU_UWnrOGWX7Mk-29" value="" style="whiteSpace=wrap;html=1;labelPosition=center;verticalLabelPosition=middle;align=center;verticalAlign=bottom;" parent="1" vertex="1">
          <mxGeometry x="895" y="1300" width="10" height="160" as="geometry" />
        </mxCell>
        <mxCell id="9B1q4WMU_UWnrOGWX7Mk-30" value="thiếu dữ liêu&lt;br&gt;hoặc sai &lt;br&gt;định dạng" style="text;html=1;align=center;verticalAlign=middle;resizable=0;points=[];autosize=1;strokeColor=none;fillColor=none;" parent="1" vertex="1">
          <mxGeometry x="220" y="1340" width="90" height="60" as="geometry" />
        </mxCell>
        <mxCell id="9B1q4WMU_UWnrOGWX7Mk-31" value="else" style="text;html=1;align=center;verticalAlign=middle;resizable=0;points=[];autosize=1;strokeColor=none;fillColor=none;" parent="1" vertex="1">
          <mxGeometry x="235" y="1428" width="50" height="30" as="geometry" />
        </mxCell>
        <mxCell id="9B1q4WMU_UWnrOGWX7Mk-32" value="thông báo sai định dạng hoặc thiếu trường dữ liệu" style="endArrow=open;endSize=12;dashed=1;html=1;rounded=0;" parent="1" edge="1">
          <mxGeometry width="160" relative="1" as="geometry">
            <mxPoint x="900" y="1350" as="sourcePoint" />
            <mxPoint x="320" y="1350" as="targetPoint" />
          </mxGeometry>
        </mxCell>
        <mxCell id="9B1q4WMU_UWnrOGWX7Mk-33" value="Quản Lý" style="shape=umlActor;verticalLabelPosition=bottom;verticalAlign=top;html=1;outlineConnect=0;" parent="1" vertex="1">
          <mxGeometry x="306" y="1712" width="30" height="60" as="geometry" />
        </mxCell>
        <mxCell id="9B1q4WMU_UWnrOGWX7Mk-34" value="" style="endArrow=none;dashed=1;html=1;rounded=0;" parent="1" source="9B1q4WMU_UWnrOGWX7Mk-33" edge="1">
          <mxGeometry width="50" height="50" relative="1" as="geometry">
            <mxPoint x="140" y="2140" as="sourcePoint" />
            <mxPoint x="320" y="2090" as="targetPoint" />
          </mxGeometry>
        </mxCell>
        <mxCell id="9B1q4WMU_UWnrOGWX7Mk-35" value="Trang Khách Hàng" style="shape=umlLifeline;perimeter=lifelinePerimeter;whiteSpace=wrap;html=1;container=1;dropTarget=0;collapsible=0;recursiveResize=0;outlineConnect=0;portConstraint=eastwest;newEdgeStyle={&quot;curved&quot;:0,&quot;rounded&quot;:0};" parent="1" vertex="1">
          <mxGeometry x="450" y="1730" width="100" height="380" as="geometry" />
        </mxCell>
        <mxCell id="9B1q4WMU_UWnrOGWX7Mk-36" value="Trang chi tiết hóa đơn" style="shape=umlLifeline;perimeter=lifelinePerimeter;whiteSpace=wrap;html=1;container=1;dropTarget=0;collapsible=0;recursiveResize=0;outlineConnect=0;portConstraint=eastwest;newEdgeStyle={&quot;curved&quot;:0,&quot;rounded&quot;:0};" parent="1" vertex="1">
          <mxGeometry x="670" y="1730" width="100" height="380" as="geometry" />
        </mxCell>
        <mxCell id="9B1q4WMU_UWnrOGWX7Mk-37" value="Database" style="shape=umlLifeline;perimeter=lifelinePerimeter;whiteSpace=wrap;html=1;container=1;dropTarget=0;collapsible=0;recursiveResize=0;outlineConnect=0;portConstraint=eastwest;newEdgeStyle={&quot;curved&quot;:0,&quot;rounded&quot;:0};" parent="1" vertex="1">
          <mxGeometry x="1050" y="1730" width="100" height="380" as="geometry" />
        </mxCell>
        <mxCell id="9B1q4WMU_UWnrOGWX7Mk-38" value="Click váo hóa đơn muốn xem &lt;br&gt;của khách hàng" style="endArrow=block;endSize=16;endFill=0;html=1;rounded=0;" parent="1" edge="1">
          <mxGeometry width="160" relative="1" as="geometry">
            <mxPoint x="321" y="1837" as="sourcePoint" />
            <mxPoint x="501" y="1837" as="targetPoint" />
          </mxGeometry>
        </mxCell>
        <mxCell id="9B1q4WMU_UWnrOGWX7Mk-39" value="Gọi trang xem hóa đơn khách hàng" style="endArrow=block;endSize=16;endFill=0;html=1;rounded=0;" parent="1" edge="1">
          <mxGeometry width="160" relative="1" as="geometry">
            <mxPoint x="499.5" y="1875" as="sourcePoint" />
            <mxPoint x="719.5" y="1875" as="targetPoint" />
          </mxGeometry>
        </mxCell>
        <mxCell id="9B1q4WMU_UWnrOGWX7Mk-40" value="Phương thức hiện hóa đơn khách hàng" style="shape=umlLifeline;perimeter=lifelinePerimeter;whiteSpace=wrap;html=1;container=1;dropTarget=0;collapsible=0;recursiveResize=0;outlineConnect=0;portConstraint=eastwest;newEdgeStyle={&quot;curved&quot;:0,&quot;rounded&quot;:0};" parent="1" vertex="1">
          <mxGeometry x="850" y="1730" width="100" height="360" as="geometry" />
        </mxCell>
        <mxCell id="9B1q4WMU_UWnrOGWX7Mk-42" value="Xem hóa đơn khách hàng" style="shape=umlFrame;whiteSpace=wrap;html=1;pointerEvents=0;width=190;height=30;" parent="1" vertex="1">
          <mxGeometry x="280" y="1650" width="880" height="470" as="geometry" />
        </mxCell>
        <mxCell id="9B1q4WMU_UWnrOGWX7Mk-43" value="Hiện thông tin hóa đơn&lt;br&gt;&amp;nbsp;của khách khàng" style="endArrow=open;endSize=12;dashed=1;html=1;rounded=0;" parent="1" edge="1">
          <mxGeometry width="160" relative="1" as="geometry">
            <mxPoint x="899.5" y="1930" as="sourcePoint" />
            <mxPoint x="719.6304347826087" y="1930" as="targetPoint" />
          </mxGeometry>
        </mxCell>
        <mxCell id="9B1q4WMU_UWnrOGWX7Mk-44" value="Gọi phương thức sửa" style="endArrow=block;endSize=16;endFill=0;html=1;rounded=0;" parent="1" edge="1">
          <mxGeometry width="160" relative="1" as="geometry">
            <mxPoint x="720" y="1884" as="sourcePoint" />
            <mxPoint x="899.5" y="1884" as="targetPoint" />
          </mxGeometry>
        </mxCell>
        <mxCell id="9B1q4WMU_UWnrOGWX7Mk-45" value="gọi cơ sở dữ liệu" style="endArrow=block;endSize=16;endFill=0;html=1;rounded=0;" parent="1" edge="1">
          <mxGeometry width="160" relative="1" as="geometry">
            <mxPoint x="903" y="1896" as="sourcePoint" />
            <mxPoint x="1102.5" y="1896" as="targetPoint" />
            <Array as="points">
              <mxPoint x="933" y="1896" />
            </Array>
          </mxGeometry>
        </mxCell>
        <mxCell id="9B1q4WMU_UWnrOGWX7Mk-47" value="Thông tin hóa đơn" style="endArrow=open;endSize=12;dashed=1;html=1;rounded=0;" parent="1" edge="1">
          <mxGeometry width="160" relative="1" as="geometry">
            <mxPoint x="1099.5" y="1919" as="sourcePoint" />
            <mxPoint x="900" y="1919" as="targetPoint" />
          </mxGeometry>
        </mxCell>
        <mxCell id="9B1q4WMU_UWnrOGWX7Mk-48" value="" style="whiteSpace=wrap;html=1;labelPosition=center;verticalLabelPosition=middle;align=center;verticalAlign=bottom;" parent="1" vertex="1">
          <mxGeometry x="316" y="1800" width="10" height="310" as="geometry" />
        </mxCell>
        <mxCell id="9B1q4WMU_UWnrOGWX7Mk-49" value="" style="whiteSpace=wrap;html=1;labelPosition=center;verticalLabelPosition=middle;align=center;verticalAlign=bottom;" parent="1" vertex="1">
          <mxGeometry x="495" y="1800" width="10" height="80" as="geometry" />
        </mxCell>
        <mxCell id="9B1q4WMU_UWnrOGWX7Mk-50" value="" style="whiteSpace=wrap;html=1;labelPosition=center;verticalLabelPosition=middle;align=center;verticalAlign=bottom;" parent="1" vertex="1">
          <mxGeometry x="715" y="1870" width="10" height="60" as="geometry" />
        </mxCell>
        <mxCell id="9B1q4WMU_UWnrOGWX7Mk-51" value="" style="whiteSpace=wrap;html=1;labelPosition=center;verticalLabelPosition=middle;align=center;verticalAlign=bottom;" parent="1" vertex="1">
          <mxGeometry x="1095" y="1890" width="10" height="30" as="geometry" />
        </mxCell>
        <mxCell id="9B1q4WMU_UWnrOGWX7Mk-54" value="" style="whiteSpace=wrap;html=1;labelPosition=center;verticalLabelPosition=middle;align=center;verticalAlign=bottom;" parent="1" vertex="1">
          <mxGeometry x="895" y="1883" width="10" height="47" as="geometry" />
        </mxCell>
        <mxCell id="9B1q4WMU_UWnrOGWX7Mk-62" value="" style="endArrow=none;dashed=1;html=1;rounded=0;" parent="1" edge="1">
          <mxGeometry width="50" height="50" relative="1" as="geometry">
            <mxPoint x="1440" y="2200" as="sourcePoint" />
            <mxPoint x="1440" as="targetPoint" />
          </mxGeometry>
        </mxCell>
        <mxCell id="9B1q4WMU_UWnrOGWX7Mk-63" value="Khách Hàng" style="text;html=1;align=center;verticalAlign=middle;resizable=0;points=[];autosize=1;strokeColor=none;fillColor=none;" parent="1" vertex="1">
          <mxGeometry x="25" y="78" width="90" height="30" as="geometry" />
        </mxCell>
        <mxCell id="9B1q4WMU_UWnrOGWX7Mk-64" value="Nhân Viên" style="text;html=1;align=center;verticalAlign=middle;resizable=0;points=[];autosize=1;strokeColor=none;fillColor=none;" parent="1" vertex="1">
          <mxGeometry x="1550" y="85" width="80" height="30" as="geometry" />
        </mxCell>
        <mxCell id="9B1q4WMU_UWnrOGWX7Mk-65" value="Quản Lý" style="shape=umlActor;verticalLabelPosition=bottom;verticalAlign=top;html=1;outlineConnect=0;" parent="1" vertex="1">
          <mxGeometry x="1756" y="160" width="30" height="60" as="geometry" />
        </mxCell>
        <mxCell id="9B1q4WMU_UWnrOGWX7Mk-66" value="" style="endArrow=none;dashed=1;html=1;rounded=0;" parent="1" source="9B1q4WMU_UWnrOGWX7Mk-65" edge="1">
          <mxGeometry width="50" height="50" relative="1" as="geometry">
            <mxPoint x="1590" y="550" as="sourcePoint" />
            <mxPoint x="1770" y="380" as="targetPoint" />
          </mxGeometry>
        </mxCell>
        <mxCell id="9B1q4WMU_UWnrOGWX7Mk-67" value="Trang nhân viên" style="shape=umlLifeline;perimeter=lifelinePerimeter;whiteSpace=wrap;html=1;container=1;dropTarget=0;collapsible=0;recursiveResize=0;outlineConnect=0;portConstraint=eastwest;newEdgeStyle={&quot;curved&quot;:0,&quot;rounded&quot;:0};" parent="1" vertex="1">
          <mxGeometry x="1900" y="180" width="100" height="200" as="geometry" />
        </mxCell>
        <mxCell id="9B1q4WMU_UWnrOGWX7Mk-68" value="Phương thức tìm kiếm" style="shape=umlLifeline;perimeter=lifelinePerimeter;whiteSpace=wrap;html=1;container=1;dropTarget=0;collapsible=0;recursiveResize=0;outlineConnect=0;portConstraint=eastwest;newEdgeStyle={&quot;curved&quot;:0,&quot;rounded&quot;:0};" parent="1" vertex="1">
          <mxGeometry x="2120" y="180" width="100" height="200" as="geometry" />
        </mxCell>
        <mxCell id="9B1q4WMU_UWnrOGWX7Mk-69" value="Database" style="shape=umlLifeline;perimeter=lifelinePerimeter;whiteSpace=wrap;html=1;container=1;dropTarget=0;collapsible=0;recursiveResize=0;outlineConnect=0;portConstraint=eastwest;newEdgeStyle={&quot;curved&quot;:0,&quot;rounded&quot;:0};" parent="1" vertex="1">
          <mxGeometry x="2320" y="180" width="100" height="200" as="geometry" />
        </mxCell>
        <mxCell id="9B1q4WMU_UWnrOGWX7Mk-70" value="Ghi, chọn nội dung tìm kiếm" style="endArrow=block;endSize=16;endFill=0;html=1;rounded=0;" parent="1" edge="1">
          <mxGeometry width="160" relative="1" as="geometry">
            <mxPoint x="1770" y="250" as="sourcePoint" />
            <mxPoint x="1950" y="250" as="targetPoint" />
          </mxGeometry>
        </mxCell>
        <mxCell id="9B1q4WMU_UWnrOGWX7Mk-71" value="gọi hàm SearchNv()" style="endArrow=block;endSize=16;endFill=0;html=1;rounded=0;" parent="1" source="9B1q4WMU_UWnrOGWX7Mk-67" edge="1">
          <mxGeometry width="160" relative="1" as="geometry">
            <mxPoint x="1970" y="258" as="sourcePoint" />
            <mxPoint x="2169.5" y="258" as="targetPoint" />
          </mxGeometry>
        </mxCell>
        <mxCell id="9B1q4WMU_UWnrOGWX7Mk-72" value="Truy vấn cơ sở dữ liệu" style="endArrow=block;endSize=16;endFill=0;html=1;rounded=0;" parent="1" source="9B1q4WMU_UWnrOGWX7Mk-68" edge="1">
          <mxGeometry width="160" relative="1" as="geometry">
            <mxPoint x="2170" y="268" as="sourcePoint" />
            <mxPoint x="2370" y="268" as="targetPoint" />
          </mxGeometry>
        </mxCell>
        <mxCell id="9B1q4WMU_UWnrOGWX7Mk-73" value="Trả về nhân viên tìm được" style="endArrow=open;endSize=12;dashed=1;html=1;rounded=0;" parent="1" edge="1">
          <mxGeometry width="160" relative="1" as="geometry">
            <mxPoint x="2369.5" y="300" as="sourcePoint" />
            <mxPoint x="2169.5" y="300" as="targetPoint" />
          </mxGeometry>
        </mxCell>
        <mxCell id="9B1q4WMU_UWnrOGWX7Mk-74" value="Trả về nhân viên tìm được lên table" style="endArrow=open;endSize=12;dashed=1;html=1;rounded=0;" parent="1" target="9B1q4WMU_UWnrOGWX7Mk-67" edge="1">
          <mxGeometry width="160" relative="1" as="geometry">
            <mxPoint x="2169.5" y="312" as="sourcePoint" />
            <mxPoint x="1969.5" y="312" as="targetPoint" />
          </mxGeometry>
        </mxCell>
        <mxCell id="9B1q4WMU_UWnrOGWX7Mk-75" value="" style="whiteSpace=wrap;html=1;labelPosition=center;verticalLabelPosition=middle;align=center;verticalAlign=bottom;" parent="1" vertex="1">
          <mxGeometry x="2365" y="270" width="10" height="30" as="geometry" />
        </mxCell>
        <mxCell id="9B1q4WMU_UWnrOGWX7Mk-76" value="Tìm kiếm nhân viên" style="shape=umlFrame;whiteSpace=wrap;html=1;pointerEvents=0;width=190;height=30;" parent="1" vertex="1">
          <mxGeometry x="1680" y="120" width="800" height="280" as="geometry" />
        </mxCell>
        <mxCell id="9B1q4WMU_UWnrOGWX7Mk-78" value="" style="whiteSpace=wrap;html=1;labelPosition=center;verticalLabelPosition=middle;align=center;verticalAlign=bottom;" parent="1" vertex="1">
          <mxGeometry x="2165" y="252.5" width="10" height="65" as="geometry" />
        </mxCell>
        <mxCell id="9B1q4WMU_UWnrOGWX7Mk-79" value="" style="whiteSpace=wrap;html=1;labelPosition=center;verticalLabelPosition=middle;align=center;verticalAlign=bottom;" parent="1" vertex="1">
          <mxGeometry x="1945" y="250" width="10" height="60" as="geometry" />
        </mxCell>
        <mxCell id="9B1q4WMU_UWnrOGWX7Mk-80" value="" style="whiteSpace=wrap;html=1;labelPosition=center;verticalLabelPosition=middle;align=center;verticalAlign=bottom;" parent="1" vertex="1">
          <mxGeometry x="1766" y="240" width="10" height="140" as="geometry" />
        </mxCell>
        <mxCell id="9B1q4WMU_UWnrOGWX7Mk-84" value="Quản Lý" style="shape=umlActor;verticalLabelPosition=bottom;verticalAlign=top;html=1;outlineConnect=0;" parent="1" vertex="1">
          <mxGeometry x="1776" y="540" width="30" height="60" as="geometry" />
        </mxCell>
        <mxCell id="9B1q4WMU_UWnrOGWX7Mk-85" value="" style="endArrow=none;dashed=1;html=1;rounded=0;" parent="1" source="9B1q4WMU_UWnrOGWX7Mk-84" edge="1">
          <mxGeometry width="50" height="50" relative="1" as="geometry">
            <mxPoint x="1610" y="930" as="sourcePoint" />
            <mxPoint x="1790" y="880" as="targetPoint" />
          </mxGeometry>
        </mxCell>
        <mxCell id="9B1q4WMU_UWnrOGWX7Mk-86" value="Trang nhân viên" style="shape=umlLifeline;perimeter=lifelinePerimeter;whiteSpace=wrap;html=1;container=1;dropTarget=0;collapsible=0;recursiveResize=0;outlineConnect=0;portConstraint=eastwest;newEdgeStyle={&quot;curved&quot;:0,&quot;rounded&quot;:0};" parent="1" vertex="1">
          <mxGeometry x="1920" y="560" width="100" height="340" as="geometry" />
        </mxCell>
        <mxCell id="9B1q4WMU_UWnrOGWX7Mk-87" value="Trang thêm nhân viên" style="shape=umlLifeline;perimeter=lifelinePerimeter;whiteSpace=wrap;html=1;container=1;dropTarget=0;collapsible=0;recursiveResize=0;outlineConnect=0;portConstraint=eastwest;newEdgeStyle={&quot;curved&quot;:0,&quot;rounded&quot;:0};" parent="1" vertex="1">
          <mxGeometry x="2140" y="560" width="100" height="340" as="geometry" />
        </mxCell>
        <mxCell id="9B1q4WMU_UWnrOGWX7Mk-88" value="Database" style="shape=umlLifeline;perimeter=lifelinePerimeter;whiteSpace=wrap;html=1;container=1;dropTarget=0;collapsible=0;recursiveResize=0;outlineConnect=0;portConstraint=eastwest;newEdgeStyle={&quot;curved&quot;:0,&quot;rounded&quot;:0};" parent="1" vertex="1">
          <mxGeometry x="2520" y="560" width="100" height="340" as="geometry" />
        </mxCell>
        <mxCell id="9B1q4WMU_UWnrOGWX7Mk-89" value="Click nút thêm" style="endArrow=block;endSize=16;endFill=0;html=1;rounded=0;" parent="1" edge="1">
          <mxGeometry width="160" relative="1" as="geometry">
            <mxPoint x="1790" y="654" as="sourcePoint" />
            <mxPoint x="1970" y="654" as="targetPoint" />
          </mxGeometry>
        </mxCell>
        <mxCell id="9B1q4WMU_UWnrOGWX7Mk-90" value="Gọi trang thêm nhân viên" style="endArrow=block;endSize=16;endFill=0;html=1;rounded=0;" parent="1" edge="1">
          <mxGeometry width="160" relative="1" as="geometry">
            <mxPoint x="1969.5" y="665" as="sourcePoint" />
            <mxPoint x="2189.5" y="665" as="targetPoint" />
          </mxGeometry>
        </mxCell>
        <mxCell id="9B1q4WMU_UWnrOGWX7Mk-91" value="Phương thức thêm nhân viên" style="shape=umlLifeline;perimeter=lifelinePerimeter;whiteSpace=wrap;html=1;container=1;dropTarget=0;collapsible=0;recursiveResize=0;outlineConnect=0;portConstraint=eastwest;newEdgeStyle={&quot;curved&quot;:0,&quot;rounded&quot;:0};" parent="1" vertex="1">
          <mxGeometry x="2320" y="560" width="100" height="320" as="geometry" />
        </mxCell>
        <mxCell id="9B1q4WMU_UWnrOGWX7Mk-92" value="Ghi thông tin nhân viên và click nút thêm" style="endArrow=block;endSize=16;endFill=0;html=1;rounded=0;" parent="1" edge="1">
          <mxGeometry width="160" relative="1" as="geometry">
            <mxPoint x="1790" y="730" as="sourcePoint" />
            <mxPoint x="2189.5" y="730" as="targetPoint" />
          </mxGeometry>
        </mxCell>
        <mxCell id="9B1q4WMU_UWnrOGWX7Mk-93" value="Thêm nhân viên" style="shape=umlFrame;whiteSpace=wrap;html=1;pointerEvents=0;width=190;height=30;" parent="1" vertex="1">
          <mxGeometry x="1650" y="490" width="980" height="450" as="geometry" />
        </mxCell>
        <mxCell id="9B1q4WMU_UWnrOGWX7Mk-94" value="Nhân viên muốn làm" style="shape=umlActor;verticalLabelPosition=bottom;verticalAlign=top;html=1;outlineConnect=0;" parent="1" vertex="1">
          <mxGeometry x="1570" y="540" width="30" height="60" as="geometry" />
        </mxCell>
        <mxCell id="9B1q4WMU_UWnrOGWX7Mk-95" value="" style="endArrow=none;dashed=1;html=1;rounded=0;" parent="1" source="9B1q4WMU_UWnrOGWX7Mk-109" edge="1">
          <mxGeometry width="50" height="50" relative="1" as="geometry">
            <mxPoint x="1404" y="930" as="sourcePoint" />
            <mxPoint x="1585" y="900" as="targetPoint" />
          </mxGeometry>
        </mxCell>
        <mxCell id="9B1q4WMU_UWnrOGWX7Mk-96" value="Yêu cầu đăng ký &lt;br&gt;làm nhân viên" style="endArrow=block;endSize=16;endFill=0;html=1;rounded=0;exitX=0.25;exitY=0;exitDx=0;exitDy=0;" parent="1" source="9B1q4WMU_UWnrOGWX7Mk-109" edge="1">
          <mxGeometry width="160" relative="1" as="geometry">
            <mxPoint x="1630" y="640" as="sourcePoint" />
            <mxPoint x="1790" y="640" as="targetPoint" />
          </mxGeometry>
        </mxCell>
        <mxCell id="9B1q4WMU_UWnrOGWX7Mk-97" value="Hiện Trang thêm nhân viên" style="endArrow=open;endSize=12;dashed=1;html=1;rounded=0;" parent="1" source="9B1q4WMU_UWnrOGWX7Mk-87" edge="1">
          <mxGeometry width="160" relative="1" as="geometry">
            <mxPoint x="1860" y="670" as="sourcePoint" />
            <mxPoint x="1790" y="690" as="targetPoint" />
          </mxGeometry>
        </mxCell>
        <mxCell id="9B1q4WMU_UWnrOGWX7Mk-98" value="yêu cầu đọc thông tin" style="endArrow=open;endSize=12;dashed=1;html=1;rounded=0;entryX=1;entryY=0.75;entryDx=0;entryDy=0;" parent="1" target="9B1q4WMU_UWnrOGWX7Mk-109" edge="1">
          <mxGeometry width="160" relative="1" as="geometry">
            <mxPoint x="1786" y="700" as="sourcePoint" />
            <mxPoint x="1630" y="700" as="targetPoint" />
          </mxGeometry>
        </mxCell>
        <mxCell id="9B1q4WMU_UWnrOGWX7Mk-99" value="Đọc thông tin" style="endArrow=block;endSize=16;endFill=0;html=1;rounded=0;exitX=0.75;exitY=1;exitDx=0;exitDy=0;" parent="1" source="9B1q4WMU_UWnrOGWX7Mk-109" edge="1">
          <mxGeometry width="160" relative="1" as="geometry">
            <mxPoint x="1630" y="720" as="sourcePoint" />
            <mxPoint x="1790" y="720" as="targetPoint" />
          </mxGeometry>
        </mxCell>
        <mxCell id="9B1q4WMU_UWnrOGWX7Mk-100" value="Gọi phương thức thêm" style="endArrow=block;endSize=16;endFill=0;html=1;rounded=0;" parent="1" target="9B1q4WMU_UWnrOGWX7Mk-91" edge="1">
          <mxGeometry width="160" relative="1" as="geometry">
            <mxPoint x="2190" y="740" as="sourcePoint" />
            <mxPoint x="2350" y="740" as="targetPoint" />
          </mxGeometry>
        </mxCell>
        <mxCell id="9B1q4WMU_UWnrOGWX7Mk-101" value="Thêm vào cơ sở dữ liệu" style="endArrow=block;endSize=16;endFill=0;html=1;rounded=0;" parent="1" edge="1">
          <mxGeometry width="160" relative="1" as="geometry">
            <mxPoint x="2375" y="863" as="sourcePoint" />
            <mxPoint x="2574.5" y="863" as="targetPoint" />
            <Array as="points">
              <mxPoint x="2405" y="863" />
            </Array>
          </mxGeometry>
        </mxCell>
        <mxCell id="9B1q4WMU_UWnrOGWX7Mk-102" value="Thông báo thêm thành công" style="endArrow=open;endSize=12;dashed=1;html=1;rounded=0;" parent="1" edge="1">
          <mxGeometry width="160" relative="1" as="geometry">
            <mxPoint x="2369.5" y="893" as="sourcePoint" />
            <mxPoint x="1790" y="893" as="targetPoint" />
          </mxGeometry>
        </mxCell>
        <mxCell id="9B1q4WMU_UWnrOGWX7Mk-103" value="Cập nhật thành công" style="endArrow=open;endSize=12;dashed=1;html=1;rounded=0;" parent="1" edge="1">
          <mxGeometry width="160" relative="1" as="geometry">
            <mxPoint x="2569.5" y="885" as="sourcePoint" />
            <mxPoint x="2370" y="885" as="targetPoint" />
          </mxGeometry>
        </mxCell>
        <mxCell id="9B1q4WMU_UWnrOGWX7Mk-104" value="" style="whiteSpace=wrap;html=1;labelPosition=center;verticalLabelPosition=middle;align=center;verticalAlign=bottom;" parent="1" vertex="1">
          <mxGeometry x="1786" y="630" width="10" height="270" as="geometry" />
        </mxCell>
        <mxCell id="9B1q4WMU_UWnrOGWX7Mk-105" value="" style="whiteSpace=wrap;html=1;labelPosition=center;verticalLabelPosition=middle;align=center;verticalAlign=bottom;" parent="1" vertex="1">
          <mxGeometry x="1965" y="650" width="10" height="20" as="geometry" />
        </mxCell>
        <mxCell id="9B1q4WMU_UWnrOGWX7Mk-106" value="" style="whiteSpace=wrap;html=1;labelPosition=center;verticalLabelPosition=middle;align=center;verticalAlign=bottom;" parent="1" vertex="1">
          <mxGeometry x="2185" y="660" width="10" height="80" as="geometry" />
        </mxCell>
        <mxCell id="9B1q4WMU_UWnrOGWX7Mk-107" value="" style="whiteSpace=wrap;html=1;labelPosition=center;verticalLabelPosition=middle;align=center;verticalAlign=bottom;" parent="1" vertex="1">
          <mxGeometry x="2565" y="856" width="10" height="30" as="geometry" />
        </mxCell>
        <mxCell id="9B1q4WMU_UWnrOGWX7Mk-108" value="" style="endArrow=none;dashed=1;html=1;rounded=0;" parent="1" source="9B1q4WMU_UWnrOGWX7Mk-94" target="9B1q4WMU_UWnrOGWX7Mk-109" edge="1">
          <mxGeometry width="50" height="50" relative="1" as="geometry">
            <mxPoint x="1585" y="600" as="sourcePoint" />
            <mxPoint x="1584" y="820" as="targetPoint" />
          </mxGeometry>
        </mxCell>
        <mxCell id="9B1q4WMU_UWnrOGWX7Mk-109" value="" style="whiteSpace=wrap;html=1;labelPosition=center;verticalLabelPosition=middle;align=center;verticalAlign=bottom;" parent="1" vertex="1">
          <mxGeometry x="1580" y="640" width="10" height="80" as="geometry" />
        </mxCell>
        <mxCell id="9B1q4WMU_UWnrOGWX7Mk-110" value="" style="endArrow=none;dashed=1;html=1;rounded=0;exitX=0.001;exitY=0.613;exitDx=0;exitDy=0;exitPerimeter=0;entryX=1;entryY=0.571;entryDx=0;entryDy=0;entryPerimeter=0;" parent="1" edge="1">
          <mxGeometry width="50" height="50" relative="1" as="geometry">
            <mxPoint x="1690.91" y="841.21" as="sourcePoint" />
            <mxPoint x="2600" y="839.0699999999999" as="targetPoint" />
          </mxGeometry>
        </mxCell>
        <mxCell id="9B1q4WMU_UWnrOGWX7Mk-111" value="kiểm tra ghi đủ các trường" style="shape=umlFrame;whiteSpace=wrap;html=1;pointerEvents=0;width=100;height=30;" parent="1" vertex="1">
          <mxGeometry x="1680" y="750" width="920" height="170" as="geometry" />
        </mxCell>
        <mxCell id="9B1q4WMU_UWnrOGWX7Mk-112" value="" style="whiteSpace=wrap;html=1;labelPosition=center;verticalLabelPosition=middle;align=center;verticalAlign=bottom;" parent="1" vertex="1">
          <mxGeometry x="2365" y="740" width="10" height="160" as="geometry" />
        </mxCell>
        <mxCell id="9B1q4WMU_UWnrOGWX7Mk-113" value="thiếu dữ liêu&lt;br&gt;hoặc sai &lt;br&gt;định dạng" style="text;html=1;align=center;verticalAlign=middle;resizable=0;points=[];autosize=1;strokeColor=none;fillColor=none;" parent="1" vertex="1">
          <mxGeometry x="1690" y="780" width="90" height="60" as="geometry" />
        </mxCell>
        <mxCell id="9B1q4WMU_UWnrOGWX7Mk-114" value="else" style="text;html=1;align=center;verticalAlign=middle;resizable=0;points=[];autosize=1;strokeColor=none;fillColor=none;" parent="1" vertex="1">
          <mxGeometry x="1705" y="868" width="50" height="30" as="geometry" />
        </mxCell>
        <mxCell id="9B1q4WMU_UWnrOGWX7Mk-115" value="thông báo sai định dạng hoặc thiếu trường dữ liệu" style="endArrow=open;endSize=12;dashed=1;html=1;rounded=0;" parent="1" edge="1">
          <mxGeometry width="160" relative="1" as="geometry">
            <mxPoint x="2370" y="790" as="sourcePoint" />
            <mxPoint x="1790" y="790" as="targetPoint" />
          </mxGeometry>
        </mxCell>
        <mxCell id="9B1q4WMU_UWnrOGWX7Mk-117" value="Click nút sửa" style="endArrow=block;endSize=16;endFill=0;html=1;rounded=0;" parent="1" edge="1">
          <mxGeometry width="160" relative="1" as="geometry">
            <mxPoint x="1801" y="1259.13" as="sourcePoint" />
            <mxPoint x="1981" y="1259.13" as="targetPoint" />
          </mxGeometry>
        </mxCell>
        <mxCell id="9B1q4WMU_UWnrOGWX7Mk-118" value="Quản Lý" style="shape=umlActor;verticalLabelPosition=bottom;verticalAlign=top;html=1;outlineConnect=0;" parent="1" vertex="1">
          <mxGeometry x="1786" y="1140" width="30" height="60" as="geometry" />
        </mxCell>
        <mxCell id="9B1q4WMU_UWnrOGWX7Mk-119" value="" style="endArrow=none;dashed=1;html=1;rounded=0;" parent="1" source="9B1q4WMU_UWnrOGWX7Mk-118" edge="1">
          <mxGeometry width="50" height="50" relative="1" as="geometry">
            <mxPoint x="1620" y="1530" as="sourcePoint" />
            <mxPoint x="1800" y="1480" as="targetPoint" />
          </mxGeometry>
        </mxCell>
        <mxCell id="9B1q4WMU_UWnrOGWX7Mk-120" value="Trang nhân viên" style="shape=umlLifeline;perimeter=lifelinePerimeter;whiteSpace=wrap;html=1;container=1;dropTarget=0;collapsible=0;recursiveResize=0;outlineConnect=0;portConstraint=eastwest;newEdgeStyle={&quot;curved&quot;:0,&quot;rounded&quot;:0};" parent="1" vertex="1">
          <mxGeometry x="1930" y="1160" width="100" height="340" as="geometry" />
        </mxCell>
        <mxCell id="9B1q4WMU_UWnrOGWX7Mk-121" value="Trang sửa nhân viên" style="shape=umlLifeline;perimeter=lifelinePerimeter;whiteSpace=wrap;html=1;container=1;dropTarget=0;collapsible=0;recursiveResize=0;outlineConnect=0;portConstraint=eastwest;newEdgeStyle={&quot;curved&quot;:0,&quot;rounded&quot;:0};" parent="1" vertex="1">
          <mxGeometry x="2150" y="1160" width="100" height="340" as="geometry" />
        </mxCell>
        <mxCell id="9B1q4WMU_UWnrOGWX7Mk-122" value="Database" style="shape=umlLifeline;perimeter=lifelinePerimeter;whiteSpace=wrap;html=1;container=1;dropTarget=0;collapsible=0;recursiveResize=0;outlineConnect=0;portConstraint=eastwest;newEdgeStyle={&quot;curved&quot;:0,&quot;rounded&quot;:0};" parent="1" vertex="1">
          <mxGeometry x="2530" y="1160" width="100" height="340" as="geometry" />
        </mxCell>
        <mxCell id="9B1q4WMU_UWnrOGWX7Mk-123" value="Click vào nhân viên" style="endArrow=block;endSize=16;endFill=0;html=1;rounded=0;" parent="1" edge="1">
          <mxGeometry width="160" relative="1" as="geometry">
            <mxPoint x="1801" y="1230" as="sourcePoint" />
            <mxPoint x="1981" y="1230" as="targetPoint" />
          </mxGeometry>
        </mxCell>
        <mxCell id="9B1q4WMU_UWnrOGWX7Mk-124" value="Gọi trang sửa nhân viên" style="endArrow=block;endSize=16;endFill=0;html=1;rounded=0;" parent="1" edge="1">
          <mxGeometry width="160" relative="1" as="geometry">
            <mxPoint x="1979.5" y="1265" as="sourcePoint" />
            <mxPoint x="2199.5" y="1265" as="targetPoint" />
          </mxGeometry>
        </mxCell>
        <mxCell id="9B1q4WMU_UWnrOGWX7Mk-125" value="Phương thức sửa nhân viên" style="shape=umlLifeline;perimeter=lifelinePerimeter;whiteSpace=wrap;html=1;container=1;dropTarget=0;collapsible=0;recursiveResize=0;outlineConnect=0;portConstraint=eastwest;newEdgeStyle={&quot;curved&quot;:0,&quot;rounded&quot;:0};" parent="1" vertex="1">
          <mxGeometry x="2330" y="1160" width="100" height="320" as="geometry" />
        </mxCell>
        <mxCell id="9B1q4WMU_UWnrOGWX7Mk-126" value="Ghi thông tin mới nhân viên và click nút sửa" style="endArrow=block;endSize=16;endFill=0;html=1;rounded=0;" parent="1" edge="1">
          <mxGeometry width="160" relative="1" as="geometry">
            <mxPoint x="1800" y="1330" as="sourcePoint" />
            <mxPoint x="2199.5" y="1330" as="targetPoint" />
          </mxGeometry>
        </mxCell>
        <mxCell id="9B1q4WMU_UWnrOGWX7Mk-127" value="Sửa nhân viên" style="shape=umlFrame;whiteSpace=wrap;html=1;pointerEvents=0;width=190;height=30;" parent="1" vertex="1">
          <mxGeometry x="1680" y="1090" width="960" height="450" as="geometry" />
        </mxCell>
        <mxCell id="9B1q4WMU_UWnrOGWX7Mk-128" value="Hiện Trang sửa nhân viên" style="endArrow=open;endSize=12;dashed=1;html=1;rounded=0;" parent="1" source="9B1q4WMU_UWnrOGWX7Mk-121" edge="1">
          <mxGeometry width="160" relative="1" as="geometry">
            <mxPoint x="1870" y="1270" as="sourcePoint" />
            <mxPoint x="1800" y="1290" as="targetPoint" />
          </mxGeometry>
        </mxCell>
        <mxCell id="9B1q4WMU_UWnrOGWX7Mk-129" value="Gọi phương thức sửa" style="endArrow=block;endSize=16;endFill=0;html=1;rounded=0;" parent="1" target="9B1q4WMU_UWnrOGWX7Mk-125" edge="1">
          <mxGeometry width="160" relative="1" as="geometry">
            <mxPoint x="2200" y="1340" as="sourcePoint" />
            <mxPoint x="2360" y="1340" as="targetPoint" />
          </mxGeometry>
        </mxCell>
        <mxCell id="9B1q4WMU_UWnrOGWX7Mk-130" value="sửa cơ sở dữ liệu" style="endArrow=block;endSize=16;endFill=0;html=1;rounded=0;" parent="1" edge="1">
          <mxGeometry width="160" relative="1" as="geometry">
            <mxPoint x="2385" y="1463" as="sourcePoint" />
            <mxPoint x="2584.5" y="1463" as="targetPoint" />
            <Array as="points">
              <mxPoint x="2415" y="1463" />
            </Array>
          </mxGeometry>
        </mxCell>
        <mxCell id="9B1q4WMU_UWnrOGWX7Mk-131" value="Thông báo sửa thành công" style="endArrow=open;endSize=12;dashed=1;html=1;rounded=0;" parent="1" edge="1">
          <mxGeometry width="160" relative="1" as="geometry">
            <mxPoint x="2379.5" y="1493" as="sourcePoint" />
            <mxPoint x="1800" y="1493" as="targetPoint" />
          </mxGeometry>
        </mxCell>
        <mxCell id="9B1q4WMU_UWnrOGWX7Mk-132" value="Cập nhật thành công" style="endArrow=open;endSize=12;dashed=1;html=1;rounded=0;" parent="1" edge="1">
          <mxGeometry width="160" relative="1" as="geometry">
            <mxPoint x="2579.5" y="1485" as="sourcePoint" />
            <mxPoint x="2380" y="1485" as="targetPoint" />
          </mxGeometry>
        </mxCell>
        <mxCell id="9B1q4WMU_UWnrOGWX7Mk-133" value="" style="whiteSpace=wrap;html=1;labelPosition=center;verticalLabelPosition=middle;align=center;verticalAlign=bottom;" parent="1" vertex="1">
          <mxGeometry x="1796" y="1230" width="10" height="270" as="geometry" />
        </mxCell>
        <mxCell id="9B1q4WMU_UWnrOGWX7Mk-134" value="" style="whiteSpace=wrap;html=1;labelPosition=center;verticalLabelPosition=middle;align=center;verticalAlign=bottom;" parent="1" vertex="1">
          <mxGeometry x="1975" y="1230" width="10" height="40" as="geometry" />
        </mxCell>
        <mxCell id="9B1q4WMU_UWnrOGWX7Mk-135" value="" style="whiteSpace=wrap;html=1;labelPosition=center;verticalLabelPosition=middle;align=center;verticalAlign=bottom;" parent="1" vertex="1">
          <mxGeometry x="2195" y="1260" width="10" height="80" as="geometry" />
        </mxCell>
        <mxCell id="9B1q4WMU_UWnrOGWX7Mk-136" value="" style="whiteSpace=wrap;html=1;labelPosition=center;verticalLabelPosition=middle;align=center;verticalAlign=bottom;" parent="1" vertex="1">
          <mxGeometry x="2575" y="1456" width="10" height="30" as="geometry" />
        </mxCell>
        <mxCell id="9B1q4WMU_UWnrOGWX7Mk-137" value="" style="endArrow=none;dashed=1;html=1;rounded=0;exitX=0.001;exitY=0.613;exitDx=0;exitDy=0;exitPerimeter=0;entryX=1;entryY=0.571;entryDx=0;entryDy=0;entryPerimeter=0;" parent="1" edge="1">
          <mxGeometry width="50" height="50" relative="1" as="geometry">
            <mxPoint x="1700.91" y="1441.21" as="sourcePoint" />
            <mxPoint x="2610" y="1439.07" as="targetPoint" />
          </mxGeometry>
        </mxCell>
        <mxCell id="9B1q4WMU_UWnrOGWX7Mk-138" value="kiểm tra ghi đủ các trường" style="shape=umlFrame;whiteSpace=wrap;html=1;pointerEvents=0;width=100;height=30;" parent="1" vertex="1">
          <mxGeometry x="1690" y="1350" width="920" height="170" as="geometry" />
        </mxCell>
        <mxCell id="9B1q4WMU_UWnrOGWX7Mk-139" value="" style="whiteSpace=wrap;html=1;labelPosition=center;verticalLabelPosition=middle;align=center;verticalAlign=bottom;" parent="1" vertex="1">
          <mxGeometry x="2375" y="1340" width="10" height="160" as="geometry" />
        </mxCell>
        <mxCell id="9B1q4WMU_UWnrOGWX7Mk-140" value="thiếu dữ liêu&lt;br&gt;hoặc sai &lt;br&gt;định dạng" style="text;html=1;align=center;verticalAlign=middle;resizable=0;points=[];autosize=1;strokeColor=none;fillColor=none;" parent="1" vertex="1">
          <mxGeometry x="1700" y="1380" width="90" height="60" as="geometry" />
        </mxCell>
        <mxCell id="9B1q4WMU_UWnrOGWX7Mk-141" value="else" style="text;html=1;align=center;verticalAlign=middle;resizable=0;points=[];autosize=1;strokeColor=none;fillColor=none;" parent="1" vertex="1">
          <mxGeometry x="1715" y="1468" width="50" height="30" as="geometry" />
        </mxCell>
        <mxCell id="9B1q4WMU_UWnrOGWX7Mk-142" value="thông báo sai định dạng hoặc thiếu trường dữ liệu" style="endArrow=open;endSize=12;dashed=1;html=1;rounded=0;" parent="1" edge="1">
          <mxGeometry width="160" relative="1" as="geometry">
            <mxPoint x="2380" y="1390" as="sourcePoint" />
            <mxPoint x="1800" y="1390" as="targetPoint" />
          </mxGeometry>
        </mxCell>
        <mxCell id="9B1q4WMU_UWnrOGWX7Mk-143" value="Click nút excel" style="endArrow=block;endSize=16;endFill=0;html=1;rounded=0;" parent="1" edge="1">
          <mxGeometry width="160" relative="1" as="geometry">
            <mxPoint x="1780" y="1742.13" as="sourcePoint" />
            <mxPoint x="1960" y="1742.13" as="targetPoint" />
          </mxGeometry>
        </mxCell>
        <mxCell id="9B1q4WMU_UWnrOGWX7Mk-144" value="Quản Lý" style="shape=umlActor;verticalLabelPosition=bottom;verticalAlign=top;html=1;outlineConnect=0;" parent="1" vertex="1">
          <mxGeometry x="1765" y="1630" width="30" height="60" as="geometry" />
        </mxCell>
        <mxCell id="9B1q4WMU_UWnrOGWX7Mk-145" value="" style="endArrow=none;dashed=1;html=1;rounded=0;" parent="1" source="9B1q4WMU_UWnrOGWX7Mk-144" edge="1">
          <mxGeometry width="50" height="50" relative="1" as="geometry">
            <mxPoint x="1599" y="2020" as="sourcePoint" />
            <mxPoint x="1779" y="1970" as="targetPoint" />
          </mxGeometry>
        </mxCell>
        <mxCell id="9B1q4WMU_UWnrOGWX7Mk-146" value="Trang nhân viên" style="shape=umlLifeline;perimeter=lifelinePerimeter;whiteSpace=wrap;html=1;container=1;dropTarget=0;collapsible=0;recursiveResize=0;outlineConnect=0;portConstraint=eastwest;newEdgeStyle={&quot;curved&quot;:0,&quot;rounded&quot;:0};" parent="1" vertex="1">
          <mxGeometry x="1909" y="1650" width="100" height="340" as="geometry" />
        </mxCell>
        <mxCell id="9B1q4WMU_UWnrOGWX7Mk-147" value="Trang xuất excel" style="shape=umlLifeline;perimeter=lifelinePerimeter;whiteSpace=wrap;html=1;container=1;dropTarget=0;collapsible=0;recursiveResize=0;outlineConnect=0;portConstraint=eastwest;newEdgeStyle={&quot;curved&quot;:0,&quot;rounded&quot;:0};" parent="1" vertex="1">
          <mxGeometry x="2129" y="1650" width="100" height="340" as="geometry" />
        </mxCell>
        <mxCell id="9B1q4WMU_UWnrOGWX7Mk-148" value="File excel" style="shape=umlLifeline;perimeter=lifelinePerimeter;whiteSpace=wrap;html=1;container=1;dropTarget=0;collapsible=0;recursiveResize=0;outlineConnect=0;portConstraint=eastwest;newEdgeStyle={&quot;curved&quot;:0,&quot;rounded&quot;:0};" parent="1" vertex="1">
          <mxGeometry x="2509" y="1650" width="100" height="340" as="geometry" />
        </mxCell>
        <mxCell id="9B1q4WMU_UWnrOGWX7Mk-150" value="Gọi trang xuất excel nhân viên" style="endArrow=block;endSize=16;endFill=0;html=1;rounded=0;" parent="1" edge="1">
          <mxGeometry width="160" relative="1" as="geometry">
            <mxPoint x="1958.5" y="1755" as="sourcePoint" />
            <mxPoint x="2178.5" y="1755" as="targetPoint" />
          </mxGeometry>
        </mxCell>
        <mxCell id="9B1q4WMU_UWnrOGWX7Mk-151" value="Phương thức xuất excel list nhân viên" style="shape=umlLifeline;perimeter=lifelinePerimeter;whiteSpace=wrap;html=1;container=1;dropTarget=0;collapsible=0;recursiveResize=0;outlineConnect=0;portConstraint=eastwest;newEdgeStyle={&quot;curved&quot;:0,&quot;rounded&quot;:0};" parent="1" vertex="1">
          <mxGeometry x="2316" y="1650" width="100" height="320" as="geometry" />
        </mxCell>
        <mxCell id="9B1q4WMU_UWnrOGWX7Mk-152" value="Ghi tên file excel mới hoặc chọn file excel đã có và click vào nút save" style="endArrow=block;endSize=16;endFill=0;html=1;rounded=0;" parent="1" edge="1">
          <mxGeometry width="160" relative="1" as="geometry">
            <mxPoint x="1779" y="1820" as="sourcePoint" />
            <mxPoint x="2178.5" y="1820" as="targetPoint" />
          </mxGeometry>
        </mxCell>
        <mxCell id="9B1q4WMU_UWnrOGWX7Mk-153" value="Hiện Trang xuất excel nhân viên" style="endArrow=open;endSize=12;dashed=1;html=1;rounded=0;" parent="1" source="9B1q4WMU_UWnrOGWX7Mk-147" edge="1">
          <mxGeometry width="160" relative="1" as="geometry">
            <mxPoint x="1849" y="1760" as="sourcePoint" />
            <mxPoint x="1779" y="1780" as="targetPoint" />
          </mxGeometry>
        </mxCell>
        <mxCell id="9B1q4WMU_UWnrOGWX7Mk-154" value="Gọi phương thức xuất excel" style="endArrow=block;endSize=16;endFill=0;html=1;rounded=0;" parent="1" target="9B1q4WMU_UWnrOGWX7Mk-151" edge="1">
          <mxGeometry width="160" relative="1" as="geometry">
            <mxPoint x="2179" y="1830" as="sourcePoint" />
            <mxPoint x="2339" y="1830" as="targetPoint" />
          </mxGeometry>
        </mxCell>
        <mxCell id="9B1q4WMU_UWnrOGWX7Mk-155" value="ghi đè hoặc tạo mới file" style="endArrow=block;endSize=16;endFill=0;html=1;rounded=0;" parent="1" edge="1">
          <mxGeometry width="160" relative="1" as="geometry">
            <mxPoint x="2366" y="1953" as="sourcePoint" />
            <mxPoint x="2565.5" y="1953" as="targetPoint" />
            <Array as="points">
              <mxPoint x="2396" y="1953" />
            </Array>
          </mxGeometry>
        </mxCell>
        <mxCell id="9B1q4WMU_UWnrOGWX7Mk-156" value="Thông báo xuất file thành công" style="endArrow=open;endSize=12;dashed=1;html=1;rounded=0;" parent="1" edge="1">
          <mxGeometry width="160" relative="1" as="geometry">
            <mxPoint x="2358.5" y="1983" as="sourcePoint" />
            <mxPoint x="1779" y="1983" as="targetPoint" />
          </mxGeometry>
        </mxCell>
        <mxCell id="9B1q4WMU_UWnrOGWX7Mk-157" value="xuất thành công" style="endArrow=open;endSize=12;dashed=1;html=1;rounded=0;" parent="1" edge="1">
          <mxGeometry width="160" relative="1" as="geometry">
            <mxPoint x="2561.5" y="1975" as="sourcePoint" />
            <mxPoint x="2362" y="1975" as="targetPoint" />
          </mxGeometry>
        </mxCell>
        <mxCell id="9B1q4WMU_UWnrOGWX7Mk-158" value="" style="whiteSpace=wrap;html=1;labelPosition=center;verticalLabelPosition=middle;align=center;verticalAlign=bottom;" parent="1" vertex="1">
          <mxGeometry x="1775" y="1720" width="10" height="270" as="geometry" />
        </mxCell>
        <mxCell id="9B1q4WMU_UWnrOGWX7Mk-159" value="" style="whiteSpace=wrap;html=1;labelPosition=center;verticalLabelPosition=middle;align=center;verticalAlign=bottom;" parent="1" vertex="1">
          <mxGeometry x="1954" y="1740" width="10" height="20" as="geometry" />
        </mxCell>
        <mxCell id="9B1q4WMU_UWnrOGWX7Mk-160" value="" style="whiteSpace=wrap;html=1;labelPosition=center;verticalLabelPosition=middle;align=center;verticalAlign=bottom;" parent="1" vertex="1">
          <mxGeometry x="2174" y="1750" width="10" height="80" as="geometry" />
        </mxCell>
        <mxCell id="9B1q4WMU_UWnrOGWX7Mk-161" value="" style="whiteSpace=wrap;html=1;labelPosition=center;verticalLabelPosition=middle;align=center;verticalAlign=bottom;" parent="1" vertex="1">
          <mxGeometry x="2554" y="1946" width="10" height="30" as="geometry" />
        </mxCell>
        <mxCell id="9B1q4WMU_UWnrOGWX7Mk-162" value="" style="whiteSpace=wrap;html=1;labelPosition=center;verticalLabelPosition=middle;align=center;verticalAlign=bottom;" parent="1" vertex="1">
          <mxGeometry x="2358" y="1830" width="10" height="160" as="geometry" />
        </mxCell>
        <mxCell id="9B1q4WMU_UWnrOGWX7Mk-163" value="thông báo file đang mở" style="endArrow=open;endSize=12;dashed=1;html=1;rounded=0;" parent="1" edge="1">
          <mxGeometry width="160" relative="1" as="geometry">
            <mxPoint x="2359" y="1880" as="sourcePoint" />
            <mxPoint x="1779" y="1880" as="targetPoint" />
          </mxGeometry>
        </mxCell>
        <mxCell id="9B1q4WMU_UWnrOGWX7Mk-164" value="" style="endArrow=none;dashed=1;html=1;rounded=0;exitX=-0.002;exitY=0.544;exitDx=0;exitDy=0;exitPerimeter=0;entryX=1;entryY=0.571;entryDx=0;entryDy=0;entryPerimeter=0;" parent="1" source="9B1q4WMU_UWnrOGWX7Mk-165" edge="1">
          <mxGeometry width="50" height="50" relative="1" as="geometry">
            <mxPoint x="1710.91" y="1931.21" as="sourcePoint" />
            <mxPoint x="2620" y="1929.07" as="targetPoint" />
          </mxGeometry>
        </mxCell>
        <mxCell id="9B1q4WMU_UWnrOGWX7Mk-165" value="kiểm tra file có đang mở" style="shape=umlFrame;whiteSpace=wrap;html=1;pointerEvents=0;width=100;height=30;" parent="1" vertex="1">
          <mxGeometry x="1670" y="1840" width="950" height="170" as="geometry" />
        </mxCell>
        <mxCell id="9B1q4WMU_UWnrOGWX7Mk-166" value="file chọn&lt;br&gt;&amp;nbsp;đang mở" style="text;html=1;align=center;verticalAlign=middle;resizable=0;points=[];autosize=1;strokeColor=none;fillColor=none;" parent="1" vertex="1">
          <mxGeometry x="1685" y="1883" width="70" height="40" as="geometry" />
        </mxCell>
        <mxCell id="9B1q4WMU_UWnrOGWX7Mk-167" value="else" style="text;html=1;align=center;verticalAlign=middle;resizable=0;points=[];autosize=1;strokeColor=none;fillColor=none;" parent="1" vertex="1">
          <mxGeometry x="1685" y="1948" width="50" height="30" as="geometry" />
        </mxCell>
        <mxCell id="9B1q4WMU_UWnrOGWX7Mk-168" value="xuất file excel nhân viên" style="shape=umlFrame;whiteSpace=wrap;html=1;pointerEvents=0;width=200;height=30;" parent="1" vertex="1">
          <mxGeometry x="1630" y="1580" width="1030" height="460" as="geometry" />
        </mxCell>
        <mxCell id="9B1q4WMU_UWnrOGWX7Mk-169" value="Nhà cung cấp" style="text;html=1;align=center;verticalAlign=middle;resizable=0;points=[];autosize=1;strokeColor=none;fillColor=none;" parent="1" vertex="1">
          <mxGeometry x="2860" y="100" width="100" height="30" as="geometry" />
        </mxCell>
        <mxCell id="9B1q4WMU_UWnrOGWX7Mk-170" value="Quản Lý" style="shape=umlActor;verticalLabelPosition=bottom;verticalAlign=top;html=1;outlineConnect=0;" parent="1" vertex="1">
          <mxGeometry x="3076" y="175" width="30" height="60" as="geometry" />
        </mxCell>
        <mxCell id="9B1q4WMU_UWnrOGWX7Mk-171" value="" style="endArrow=none;dashed=1;html=1;rounded=0;" parent="1" source="9B1q4WMU_UWnrOGWX7Mk-170" edge="1">
          <mxGeometry width="50" height="50" relative="1" as="geometry">
            <mxPoint x="2910" y="565" as="sourcePoint" />
            <mxPoint x="3090" y="395" as="targetPoint" />
          </mxGeometry>
        </mxCell>
        <mxCell id="9B1q4WMU_UWnrOGWX7Mk-172" value="Trang nhà cung cấp" style="shape=umlLifeline;perimeter=lifelinePerimeter;whiteSpace=wrap;html=1;container=1;dropTarget=0;collapsible=0;recursiveResize=0;outlineConnect=0;portConstraint=eastwest;newEdgeStyle={&quot;curved&quot;:0,&quot;rounded&quot;:0};" parent="1" vertex="1">
          <mxGeometry x="3220" y="195" width="100" height="200" as="geometry" />
        </mxCell>
        <mxCell id="9B1q4WMU_UWnrOGWX7Mk-173" value="Phương thức tìm kiếm" style="shape=umlLifeline;perimeter=lifelinePerimeter;whiteSpace=wrap;html=1;container=1;dropTarget=0;collapsible=0;recursiveResize=0;outlineConnect=0;portConstraint=eastwest;newEdgeStyle={&quot;curved&quot;:0,&quot;rounded&quot;:0};" parent="1" vertex="1">
          <mxGeometry x="3440" y="195" width="100" height="200" as="geometry" />
        </mxCell>
        <mxCell id="9B1q4WMU_UWnrOGWX7Mk-174" value="Database" style="shape=umlLifeline;perimeter=lifelinePerimeter;whiteSpace=wrap;html=1;container=1;dropTarget=0;collapsible=0;recursiveResize=0;outlineConnect=0;portConstraint=eastwest;newEdgeStyle={&quot;curved&quot;:0,&quot;rounded&quot;:0};" parent="1" vertex="1">
          <mxGeometry x="3640" y="195" width="100" height="200" as="geometry" />
        </mxCell>
        <mxCell id="9B1q4WMU_UWnrOGWX7Mk-175" value="Ghi, chọn nội dung tìm kiếm" style="endArrow=block;endSize=16;endFill=0;html=1;rounded=0;" parent="1" edge="1">
          <mxGeometry width="160" relative="1" as="geometry">
            <mxPoint x="3090" y="265" as="sourcePoint" />
            <mxPoint x="3270" y="265" as="targetPoint" />
          </mxGeometry>
        </mxCell>
        <mxCell id="9B1q4WMU_UWnrOGWX7Mk-176" value="gọi hàm SearchNCC()" style="endArrow=block;endSize=16;endFill=0;html=1;rounded=0;" parent="1" source="9B1q4WMU_UWnrOGWX7Mk-172" edge="1">
          <mxGeometry width="160" relative="1" as="geometry">
            <mxPoint x="3290" y="273" as="sourcePoint" />
            <mxPoint x="3489.5" y="273" as="targetPoint" />
          </mxGeometry>
        </mxCell>
        <mxCell id="9B1q4WMU_UWnrOGWX7Mk-177" value="Truy vấn cơ sở dữ liệu" style="endArrow=block;endSize=16;endFill=0;html=1;rounded=0;" parent="1" source="9B1q4WMU_UWnrOGWX7Mk-173" edge="1">
          <mxGeometry width="160" relative="1" as="geometry">
            <mxPoint x="3490" y="283" as="sourcePoint" />
            <mxPoint x="3690" y="283" as="targetPoint" />
          </mxGeometry>
        </mxCell>
        <mxCell id="9B1q4WMU_UWnrOGWX7Mk-178" value="Trả về nhà cung cấp tìm được" style="endArrow=open;endSize=12;dashed=1;html=1;rounded=0;" parent="1" edge="1">
          <mxGeometry width="160" relative="1" as="geometry">
            <mxPoint x="3689.5" y="315" as="sourcePoint" />
            <mxPoint x="3489.5" y="315" as="targetPoint" />
          </mxGeometry>
        </mxCell>
        <mxCell id="9B1q4WMU_UWnrOGWX7Mk-179" value="Trả về nhà cung cấp tìm được lên table" style="endArrow=open;endSize=12;dashed=1;html=1;rounded=0;" parent="1" target="9B1q4WMU_UWnrOGWX7Mk-172" edge="1">
          <mxGeometry width="160" relative="1" as="geometry">
            <mxPoint x="3489.5" y="327" as="sourcePoint" />
            <mxPoint x="3289.5" y="327" as="targetPoint" />
          </mxGeometry>
        </mxCell>
        <mxCell id="9B1q4WMU_UWnrOGWX7Mk-180" value="" style="whiteSpace=wrap;html=1;labelPosition=center;verticalLabelPosition=middle;align=center;verticalAlign=bottom;" parent="1" vertex="1">
          <mxGeometry x="3685" y="285" width="10" height="30" as="geometry" />
        </mxCell>
        <mxCell id="9B1q4WMU_UWnrOGWX7Mk-181" value="Tìm kiếm nhà cung cấp" style="shape=umlFrame;whiteSpace=wrap;html=1;pointerEvents=0;width=190;height=30;" parent="1" vertex="1">
          <mxGeometry x="3000" y="135" width="800" height="280" as="geometry" />
        </mxCell>
        <mxCell id="9B1q4WMU_UWnrOGWX7Mk-182" value="" style="whiteSpace=wrap;html=1;labelPosition=center;verticalLabelPosition=middle;align=center;verticalAlign=bottom;" parent="1" vertex="1">
          <mxGeometry x="3485" y="267.5" width="10" height="65" as="geometry" />
        </mxCell>
        <mxCell id="9B1q4WMU_UWnrOGWX7Mk-183" value="" style="whiteSpace=wrap;html=1;labelPosition=center;verticalLabelPosition=middle;align=center;verticalAlign=bottom;" parent="1" vertex="1">
          <mxGeometry x="3265" y="265" width="10" height="60" as="geometry" />
        </mxCell>
        <mxCell id="9B1q4WMU_UWnrOGWX7Mk-184" value="" style="whiteSpace=wrap;html=1;labelPosition=center;verticalLabelPosition=middle;align=center;verticalAlign=bottom;" parent="1" vertex="1">
          <mxGeometry x="3086" y="255" width="10" height="140" as="geometry" />
        </mxCell>
        <mxCell id="9B1q4WMU_UWnrOGWX7Mk-185" value="Quản Lý" style="shape=umlActor;verticalLabelPosition=bottom;verticalAlign=top;html=1;outlineConnect=0;" parent="1" vertex="1">
          <mxGeometry x="3096" y="555" width="30" height="60" as="geometry" />
        </mxCell>
        <mxCell id="9B1q4WMU_UWnrOGWX7Mk-186" value="" style="endArrow=none;dashed=1;html=1;rounded=0;" parent="1" source="9B1q4WMU_UWnrOGWX7Mk-185" edge="1">
          <mxGeometry width="50" height="50" relative="1" as="geometry">
            <mxPoint x="2930" y="945" as="sourcePoint" />
            <mxPoint x="3110" y="895" as="targetPoint" />
          </mxGeometry>
        </mxCell>
        <mxCell id="9B1q4WMU_UWnrOGWX7Mk-187" value="Trang nhà cung cấp" style="shape=umlLifeline;perimeter=lifelinePerimeter;whiteSpace=wrap;html=1;container=1;dropTarget=0;collapsible=0;recursiveResize=0;outlineConnect=0;portConstraint=eastwest;newEdgeStyle={&quot;curved&quot;:0,&quot;rounded&quot;:0};" parent="1" vertex="1">
          <mxGeometry x="3240" y="575" width="100" height="340" as="geometry" />
        </mxCell>
        <mxCell id="9B1q4WMU_UWnrOGWX7Mk-188" value="Trang thêm nhà cung cấp" style="shape=umlLifeline;perimeter=lifelinePerimeter;whiteSpace=wrap;html=1;container=1;dropTarget=0;collapsible=0;recursiveResize=0;outlineConnect=0;portConstraint=eastwest;newEdgeStyle={&quot;curved&quot;:0,&quot;rounded&quot;:0};" parent="1" vertex="1">
          <mxGeometry x="3460" y="575" width="100" height="340" as="geometry" />
        </mxCell>
        <mxCell id="9B1q4WMU_UWnrOGWX7Mk-189" value="Database" style="shape=umlLifeline;perimeter=lifelinePerimeter;whiteSpace=wrap;html=1;container=1;dropTarget=0;collapsible=0;recursiveResize=0;outlineConnect=0;portConstraint=eastwest;newEdgeStyle={&quot;curved&quot;:0,&quot;rounded&quot;:0};" parent="1" vertex="1">
          <mxGeometry x="3840" y="575" width="100" height="340" as="geometry" />
        </mxCell>
        <mxCell id="9B1q4WMU_UWnrOGWX7Mk-190" value="Click nút thêm" style="endArrow=block;endSize=16;endFill=0;html=1;rounded=0;" parent="1" edge="1">
          <mxGeometry width="160" relative="1" as="geometry">
            <mxPoint x="3110" y="669" as="sourcePoint" />
            <mxPoint x="3290" y="669" as="targetPoint" />
          </mxGeometry>
        </mxCell>
        <mxCell id="9B1q4WMU_UWnrOGWX7Mk-191" value="Gọi trang thêm nhà cung cấp" style="endArrow=block;endSize=16;endFill=0;html=1;rounded=0;" parent="1" edge="1">
          <mxGeometry width="160" relative="1" as="geometry">
            <mxPoint x="3289.5" y="680" as="sourcePoint" />
            <mxPoint x="3509.5" y="680" as="targetPoint" />
          </mxGeometry>
        </mxCell>
        <mxCell id="9B1q4WMU_UWnrOGWX7Mk-192" value="Phương thức thêm nhà cung cấp" style="shape=umlLifeline;perimeter=lifelinePerimeter;whiteSpace=wrap;html=1;container=1;dropTarget=0;collapsible=0;recursiveResize=0;outlineConnect=0;portConstraint=eastwest;newEdgeStyle={&quot;curved&quot;:0,&quot;rounded&quot;:0};" parent="1" vertex="1">
          <mxGeometry x="3640" y="575" width="100" height="320" as="geometry" />
        </mxCell>
        <mxCell id="9B1q4WMU_UWnrOGWX7Mk-193" value="Ghi thông tin nhà cung cấp và click nút thêm" style="endArrow=block;endSize=16;endFill=0;html=1;rounded=0;" parent="1" edge="1">
          <mxGeometry width="160" relative="1" as="geometry">
            <mxPoint x="3110" y="745" as="sourcePoint" />
            <mxPoint x="3509.5" y="745" as="targetPoint" />
          </mxGeometry>
        </mxCell>
        <mxCell id="9B1q4WMU_UWnrOGWX7Mk-194" value="Thêm nhà cung cấp" style="shape=umlFrame;whiteSpace=wrap;html=1;pointerEvents=0;width=190;height=30;" parent="1" vertex="1">
          <mxGeometry x="2970" y="505" width="980" height="450" as="geometry" />
        </mxCell>
        <mxCell id="9B1q4WMU_UWnrOGWX7Mk-195" value="&amp;nbsp;Đại diện nhà cung cấp" style="shape=umlActor;verticalLabelPosition=bottom;verticalAlign=top;html=1;outlineConnect=0;" parent="1" vertex="1">
          <mxGeometry x="2866" y="555" width="30" height="60" as="geometry" />
        </mxCell>
        <mxCell id="9B1q4WMU_UWnrOGWX7Mk-196" value="" style="endArrow=none;dashed=1;html=1;rounded=0;" parent="1" source="9B1q4WMU_UWnrOGWX7Mk-210" edge="1">
          <mxGeometry width="50" height="50" relative="1" as="geometry">
            <mxPoint x="2700" y="945" as="sourcePoint" />
            <mxPoint x="2881" y="915" as="targetPoint" />
          </mxGeometry>
        </mxCell>
        <mxCell id="9B1q4WMU_UWnrOGWX7Mk-197" value="Yêu cầu đăng ký &lt;br&gt;làm nhân viên" style="endArrow=block;endSize=16;endFill=0;html=1;rounded=0;exitX=0.25;exitY=0;exitDx=0;exitDy=0;" parent="1" source="9B1q4WMU_UWnrOGWX7Mk-210" edge="1">
          <mxGeometry width="160" relative="1" as="geometry">
            <mxPoint x="2950" y="655" as="sourcePoint" />
            <mxPoint x="3110" y="655" as="targetPoint" />
          </mxGeometry>
        </mxCell>
        <mxCell id="9B1q4WMU_UWnrOGWX7Mk-198" value="Hiện Trang thêm nhà cung cấp" style="endArrow=open;endSize=12;dashed=1;html=1;rounded=0;" parent="1" source="9B1q4WMU_UWnrOGWX7Mk-188" edge="1">
          <mxGeometry width="160" relative="1" as="geometry">
            <mxPoint x="3180" y="685" as="sourcePoint" />
            <mxPoint x="3110" y="705" as="targetPoint" />
          </mxGeometry>
        </mxCell>
        <mxCell id="9B1q4WMU_UWnrOGWX7Mk-199" value="yêu cầu đọc thông tin" style="endArrow=open;endSize=12;dashed=1;html=1;rounded=0;entryX=1;entryY=0.75;entryDx=0;entryDy=0;" parent="1" target="9B1q4WMU_UWnrOGWX7Mk-210" edge="1">
          <mxGeometry width="160" relative="1" as="geometry">
            <mxPoint x="3106" y="715" as="sourcePoint" />
            <mxPoint x="2950" y="715" as="targetPoint" />
          </mxGeometry>
        </mxCell>
        <mxCell id="9B1q4WMU_UWnrOGWX7Mk-200" value="Đọc thông tin" style="endArrow=block;endSize=16;endFill=0;html=1;rounded=0;exitX=0.75;exitY=1;exitDx=0;exitDy=0;" parent="1" source="9B1q4WMU_UWnrOGWX7Mk-210" edge="1">
          <mxGeometry width="160" relative="1" as="geometry">
            <mxPoint x="2950" y="735" as="sourcePoint" />
            <mxPoint x="3110" y="735" as="targetPoint" />
          </mxGeometry>
        </mxCell>
        <mxCell id="9B1q4WMU_UWnrOGWX7Mk-201" value="Gọi phương thức thêm" style="endArrow=block;endSize=16;endFill=0;html=1;rounded=0;" parent="1" target="9B1q4WMU_UWnrOGWX7Mk-192" edge="1">
          <mxGeometry width="160" relative="1" as="geometry">
            <mxPoint x="3510" y="755" as="sourcePoint" />
            <mxPoint x="3670" y="755" as="targetPoint" />
          </mxGeometry>
        </mxCell>
        <mxCell id="9B1q4WMU_UWnrOGWX7Mk-202" value="Thêm vào cơ sở dữ liệu" style="endArrow=block;endSize=16;endFill=0;html=1;rounded=0;" parent="1" edge="1">
          <mxGeometry width="160" relative="1" as="geometry">
            <mxPoint x="3695" y="878" as="sourcePoint" />
            <mxPoint x="3894.5" y="878" as="targetPoint" />
            <Array as="points">
              <mxPoint x="3725" y="878" />
            </Array>
          </mxGeometry>
        </mxCell>
        <mxCell id="9B1q4WMU_UWnrOGWX7Mk-203" value="Thông báo thêm thành công" style="endArrow=open;endSize=12;dashed=1;html=1;rounded=0;" parent="1" edge="1">
          <mxGeometry width="160" relative="1" as="geometry">
            <mxPoint x="3689.5" y="908" as="sourcePoint" />
            <mxPoint x="3110" y="908" as="targetPoint" />
          </mxGeometry>
        </mxCell>
        <mxCell id="9B1q4WMU_UWnrOGWX7Mk-204" value="Cập nhật thành công" style="endArrow=open;endSize=12;dashed=1;html=1;rounded=0;" parent="1" edge="1">
          <mxGeometry width="160" relative="1" as="geometry">
            <mxPoint x="3889.5" y="900" as="sourcePoint" />
            <mxPoint x="3690" y="900" as="targetPoint" />
          </mxGeometry>
        </mxCell>
        <mxCell id="9B1q4WMU_UWnrOGWX7Mk-205" value="" style="whiteSpace=wrap;html=1;labelPosition=center;verticalLabelPosition=middle;align=center;verticalAlign=bottom;" parent="1" vertex="1">
          <mxGeometry x="3106" y="645" width="10" height="270" as="geometry" />
        </mxCell>
        <mxCell id="9B1q4WMU_UWnrOGWX7Mk-206" value="" style="whiteSpace=wrap;html=1;labelPosition=center;verticalLabelPosition=middle;align=center;verticalAlign=bottom;" parent="1" vertex="1">
          <mxGeometry x="3285" y="665" width="10" height="20" as="geometry" />
        </mxCell>
        <mxCell id="9B1q4WMU_UWnrOGWX7Mk-207" value="" style="whiteSpace=wrap;html=1;labelPosition=center;verticalLabelPosition=middle;align=center;verticalAlign=bottom;" parent="1" vertex="1">
          <mxGeometry x="3505" y="675" width="10" height="80" as="geometry" />
        </mxCell>
        <mxCell id="9B1q4WMU_UWnrOGWX7Mk-208" value="" style="whiteSpace=wrap;html=1;labelPosition=center;verticalLabelPosition=middle;align=center;verticalAlign=bottom;" parent="1" vertex="1">
          <mxGeometry x="3885" y="871" width="10" height="30" as="geometry" />
        </mxCell>
        <mxCell id="9B1q4WMU_UWnrOGWX7Mk-209" value="" style="endArrow=none;dashed=1;html=1;rounded=0;" parent="1" source="9B1q4WMU_UWnrOGWX7Mk-195" target="9B1q4WMU_UWnrOGWX7Mk-210" edge="1">
          <mxGeometry width="50" height="50" relative="1" as="geometry">
            <mxPoint x="2881" y="615" as="sourcePoint" />
            <mxPoint x="2880" y="835" as="targetPoint" />
          </mxGeometry>
        </mxCell>
        <mxCell id="9B1q4WMU_UWnrOGWX7Mk-210" value="" style="whiteSpace=wrap;html=1;labelPosition=center;verticalLabelPosition=middle;align=center;verticalAlign=bottom;" parent="1" vertex="1">
          <mxGeometry x="2876" y="655" width="10" height="80" as="geometry" />
        </mxCell>
        <mxCell id="9B1q4WMU_UWnrOGWX7Mk-211" value="" style="endArrow=none;dashed=1;html=1;rounded=0;exitX=0.001;exitY=0.613;exitDx=0;exitDy=0;exitPerimeter=0;entryX=1;entryY=0.571;entryDx=0;entryDy=0;entryPerimeter=0;" parent="1" edge="1">
          <mxGeometry width="50" height="50" relative="1" as="geometry">
            <mxPoint x="3010.91" y="856.21" as="sourcePoint" />
            <mxPoint x="3920" y="854.0699999999999" as="targetPoint" />
          </mxGeometry>
        </mxCell>
        <mxCell id="9B1q4WMU_UWnrOGWX7Mk-212" value="kiểm tra ghi đủ các trường" style="shape=umlFrame;whiteSpace=wrap;html=1;pointerEvents=0;width=100;height=30;" parent="1" vertex="1">
          <mxGeometry x="3000" y="765" width="920" height="170" as="geometry" />
        </mxCell>
        <mxCell id="9B1q4WMU_UWnrOGWX7Mk-213" value="" style="whiteSpace=wrap;html=1;labelPosition=center;verticalLabelPosition=middle;align=center;verticalAlign=bottom;" parent="1" vertex="1">
          <mxGeometry x="3685" y="755" width="10" height="160" as="geometry" />
        </mxCell>
        <mxCell id="9B1q4WMU_UWnrOGWX7Mk-214" value="thiếu dữ liêu&lt;br&gt;hoặc sai &lt;br&gt;định dạng" style="text;html=1;align=center;verticalAlign=middle;resizable=0;points=[];autosize=1;strokeColor=none;fillColor=none;" parent="1" vertex="1">
          <mxGeometry x="3010" y="795" width="90" height="60" as="geometry" />
        </mxCell>
        <mxCell id="9B1q4WMU_UWnrOGWX7Mk-215" value="else" style="text;html=1;align=center;verticalAlign=middle;resizable=0;points=[];autosize=1;strokeColor=none;fillColor=none;" parent="1" vertex="1">
          <mxGeometry x="3025" y="883" width="50" height="30" as="geometry" />
        </mxCell>
        <mxCell id="9B1q4WMU_UWnrOGWX7Mk-216" value="thông báo sai định dạng hoặc thiếu trường dữ liệu" style="endArrow=open;endSize=12;dashed=1;html=1;rounded=0;" parent="1" edge="1">
          <mxGeometry width="160" relative="1" as="geometry">
            <mxPoint x="3690" y="805" as="sourcePoint" />
            <mxPoint x="3110" y="805" as="targetPoint" />
          </mxGeometry>
        </mxCell>
        <mxCell id="9B1q4WMU_UWnrOGWX7Mk-217" value="Click nút sửa" style="endArrow=block;endSize=16;endFill=0;html=1;rounded=0;" parent="1" edge="1">
          <mxGeometry width="160" relative="1" as="geometry">
            <mxPoint x="3121" y="1274.13" as="sourcePoint" />
            <mxPoint x="3301" y="1274.13" as="targetPoint" />
          </mxGeometry>
        </mxCell>
        <mxCell id="9B1q4WMU_UWnrOGWX7Mk-218" value="Quản Lý" style="shape=umlActor;verticalLabelPosition=bottom;verticalAlign=top;html=1;outlineConnect=0;" parent="1" vertex="1">
          <mxGeometry x="3106" y="1155" width="30" height="60" as="geometry" />
        </mxCell>
        <mxCell id="9B1q4WMU_UWnrOGWX7Mk-219" value="" style="endArrow=none;dashed=1;html=1;rounded=0;" parent="1" source="9B1q4WMU_UWnrOGWX7Mk-218" edge="1">
          <mxGeometry width="50" height="50" relative="1" as="geometry">
            <mxPoint x="2940" y="1545" as="sourcePoint" />
            <mxPoint x="3120" y="1495" as="targetPoint" />
          </mxGeometry>
        </mxCell>
        <mxCell id="9B1q4WMU_UWnrOGWX7Mk-220" value="Trang nhà cung cấp" style="shape=umlLifeline;perimeter=lifelinePerimeter;whiteSpace=wrap;html=1;container=1;dropTarget=0;collapsible=0;recursiveResize=0;outlineConnect=0;portConstraint=eastwest;newEdgeStyle={&quot;curved&quot;:0,&quot;rounded&quot;:0};" parent="1" vertex="1">
          <mxGeometry x="3250" y="1175" width="100" height="340" as="geometry" />
        </mxCell>
        <mxCell id="9B1q4WMU_UWnrOGWX7Mk-221" value="Trang sửa nhà cung cấp" style="shape=umlLifeline;perimeter=lifelinePerimeter;whiteSpace=wrap;html=1;container=1;dropTarget=0;collapsible=0;recursiveResize=0;outlineConnect=0;portConstraint=eastwest;newEdgeStyle={&quot;curved&quot;:0,&quot;rounded&quot;:0};" parent="1" vertex="1">
          <mxGeometry x="3470" y="1175" width="100" height="340" as="geometry" />
        </mxCell>
        <mxCell id="9B1q4WMU_UWnrOGWX7Mk-222" value="Database" style="shape=umlLifeline;perimeter=lifelinePerimeter;whiteSpace=wrap;html=1;container=1;dropTarget=0;collapsible=0;recursiveResize=0;outlineConnect=0;portConstraint=eastwest;newEdgeStyle={&quot;curved&quot;:0,&quot;rounded&quot;:0};" parent="1" vertex="1">
          <mxGeometry x="3850" y="1175" width="100" height="340" as="geometry" />
        </mxCell>
        <mxCell id="9B1q4WMU_UWnrOGWX7Mk-223" value="Click vào nhân viên" style="endArrow=block;endSize=16;endFill=0;html=1;rounded=0;" parent="1" edge="1">
          <mxGeometry width="160" relative="1" as="geometry">
            <mxPoint x="3121" y="1245" as="sourcePoint" />
            <mxPoint x="3301" y="1245" as="targetPoint" />
          </mxGeometry>
        </mxCell>
        <mxCell id="9B1q4WMU_UWnrOGWX7Mk-224" value="Gọi trang sửa nhà cung cấp" style="endArrow=block;endSize=16;endFill=0;html=1;rounded=0;" parent="1" edge="1">
          <mxGeometry width="160" relative="1" as="geometry">
            <mxPoint x="3299.5" y="1280" as="sourcePoint" />
            <mxPoint x="3519.5" y="1280" as="targetPoint" />
          </mxGeometry>
        </mxCell>
        <mxCell id="9B1q4WMU_UWnrOGWX7Mk-225" value="Phương thức sửa nhà cung cấp" style="shape=umlLifeline;perimeter=lifelinePerimeter;whiteSpace=wrap;html=1;container=1;dropTarget=0;collapsible=0;recursiveResize=0;outlineConnect=0;portConstraint=eastwest;newEdgeStyle={&quot;curved&quot;:0,&quot;rounded&quot;:0};" parent="1" vertex="1">
          <mxGeometry x="3650" y="1175" width="100" height="320" as="geometry" />
        </mxCell>
        <mxCell id="9B1q4WMU_UWnrOGWX7Mk-226" value="Ghi thông tin mới nhà cung cấp và click nút sửa" style="endArrow=block;endSize=16;endFill=0;html=1;rounded=0;" parent="1" edge="1">
          <mxGeometry width="160" relative="1" as="geometry">
            <mxPoint x="3120" y="1345" as="sourcePoint" />
            <mxPoint x="3519.5" y="1345" as="targetPoint" />
          </mxGeometry>
        </mxCell>
        <mxCell id="9B1q4WMU_UWnrOGWX7Mk-227" value="Sửa nhà cung cấp" style="shape=umlFrame;whiteSpace=wrap;html=1;pointerEvents=0;width=190;height=30;" parent="1" vertex="1">
          <mxGeometry x="3000" y="1105" width="960" height="450" as="geometry" />
        </mxCell>
        <mxCell id="9B1q4WMU_UWnrOGWX7Mk-228" value="Hiện Trang sửa nhà cung cấp" style="endArrow=open;endSize=12;dashed=1;html=1;rounded=0;" parent="1" source="9B1q4WMU_UWnrOGWX7Mk-221" edge="1">
          <mxGeometry width="160" relative="1" as="geometry">
            <mxPoint x="3190" y="1285" as="sourcePoint" />
            <mxPoint x="3120" y="1305" as="targetPoint" />
          </mxGeometry>
        </mxCell>
        <mxCell id="9B1q4WMU_UWnrOGWX7Mk-229" value="Gọi phương thức sửa" style="endArrow=block;endSize=16;endFill=0;html=1;rounded=0;" parent="1" target="9B1q4WMU_UWnrOGWX7Mk-225" edge="1">
          <mxGeometry width="160" relative="1" as="geometry">
            <mxPoint x="3520" y="1355" as="sourcePoint" />
            <mxPoint x="3680" y="1355" as="targetPoint" />
          </mxGeometry>
        </mxCell>
        <mxCell id="9B1q4WMU_UWnrOGWX7Mk-230" value="sửa cơ sở dữ liệu" style="endArrow=block;endSize=16;endFill=0;html=1;rounded=0;" parent="1" edge="1">
          <mxGeometry width="160" relative="1" as="geometry">
            <mxPoint x="3705" y="1478" as="sourcePoint" />
            <mxPoint x="3904.5" y="1478" as="targetPoint" />
            <Array as="points">
              <mxPoint x="3735" y="1478" />
            </Array>
          </mxGeometry>
        </mxCell>
        <mxCell id="9B1q4WMU_UWnrOGWX7Mk-231" value="Thông báo sửa thành công" style="endArrow=open;endSize=12;dashed=1;html=1;rounded=0;" parent="1" edge="1">
          <mxGeometry width="160" relative="1" as="geometry">
            <mxPoint x="3699.5" y="1508" as="sourcePoint" />
            <mxPoint x="3120" y="1508" as="targetPoint" />
          </mxGeometry>
        </mxCell>
        <mxCell id="9B1q4WMU_UWnrOGWX7Mk-232" value="Cập nhật thành công" style="endArrow=open;endSize=12;dashed=1;html=1;rounded=0;" parent="1" edge="1">
          <mxGeometry width="160" relative="1" as="geometry">
            <mxPoint x="3899.5" y="1500" as="sourcePoint" />
            <mxPoint x="3700" y="1500" as="targetPoint" />
          </mxGeometry>
        </mxCell>
        <mxCell id="9B1q4WMU_UWnrOGWX7Mk-233" value="" style="whiteSpace=wrap;html=1;labelPosition=center;verticalLabelPosition=middle;align=center;verticalAlign=bottom;" parent="1" vertex="1">
          <mxGeometry x="3116" y="1245" width="10" height="270" as="geometry" />
        </mxCell>
        <mxCell id="9B1q4WMU_UWnrOGWX7Mk-234" value="" style="whiteSpace=wrap;html=1;labelPosition=center;verticalLabelPosition=middle;align=center;verticalAlign=bottom;" parent="1" vertex="1">
          <mxGeometry x="3295" y="1245" width="10" height="40" as="geometry" />
        </mxCell>
        <mxCell id="9B1q4WMU_UWnrOGWX7Mk-235" value="" style="whiteSpace=wrap;html=1;labelPosition=center;verticalLabelPosition=middle;align=center;verticalAlign=bottom;" parent="1" vertex="1">
          <mxGeometry x="3515" y="1275" width="10" height="80" as="geometry" />
        </mxCell>
        <mxCell id="9B1q4WMU_UWnrOGWX7Mk-236" value="" style="whiteSpace=wrap;html=1;labelPosition=center;verticalLabelPosition=middle;align=center;verticalAlign=bottom;" parent="1" vertex="1">
          <mxGeometry x="3895" y="1471" width="10" height="30" as="geometry" />
        </mxCell>
        <mxCell id="9B1q4WMU_UWnrOGWX7Mk-237" value="" style="endArrow=none;dashed=1;html=1;rounded=0;exitX=0.001;exitY=0.613;exitDx=0;exitDy=0;exitPerimeter=0;entryX=1;entryY=0.571;entryDx=0;entryDy=0;entryPerimeter=0;" parent="1" edge="1">
          <mxGeometry width="50" height="50" relative="1" as="geometry">
            <mxPoint x="3020.91" y="1456.21" as="sourcePoint" />
            <mxPoint x="3930" y="1454.07" as="targetPoint" />
          </mxGeometry>
        </mxCell>
        <mxCell id="9B1q4WMU_UWnrOGWX7Mk-238" value="kiểm tra ghi đủ các trường" style="shape=umlFrame;whiteSpace=wrap;html=1;pointerEvents=0;width=100;height=30;" parent="1" vertex="1">
          <mxGeometry x="3010" y="1365" width="920" height="170" as="geometry" />
        </mxCell>
        <mxCell id="9B1q4WMU_UWnrOGWX7Mk-239" value="" style="whiteSpace=wrap;html=1;labelPosition=center;verticalLabelPosition=middle;align=center;verticalAlign=bottom;" parent="1" vertex="1">
          <mxGeometry x="3695" y="1355" width="10" height="160" as="geometry" />
        </mxCell>
        <mxCell id="9B1q4WMU_UWnrOGWX7Mk-240" value="thiếu dữ liêu&lt;br&gt;hoặc sai &lt;br&gt;định dạng" style="text;html=1;align=center;verticalAlign=middle;resizable=0;points=[];autosize=1;strokeColor=none;fillColor=none;" parent="1" vertex="1">
          <mxGeometry x="3020" y="1395" width="90" height="60" as="geometry" />
        </mxCell>
        <mxCell id="9B1q4WMU_UWnrOGWX7Mk-241" value="else" style="text;html=1;align=center;verticalAlign=middle;resizable=0;points=[];autosize=1;strokeColor=none;fillColor=none;" parent="1" vertex="1">
          <mxGeometry x="3035" y="1483" width="50" height="30" as="geometry" />
        </mxCell>
        <mxCell id="9B1q4WMU_UWnrOGWX7Mk-242" value="thông báo sai định dạng hoặc thiếu trường dữ liệu" style="endArrow=open;endSize=12;dashed=1;html=1;rounded=0;" parent="1" edge="1">
          <mxGeometry width="160" relative="1" as="geometry">
            <mxPoint x="3700" y="1405" as="sourcePoint" />
            <mxPoint x="3120" y="1405" as="targetPoint" />
          </mxGeometry>
        </mxCell>
        <mxCell id="9B1q4WMU_UWnrOGWX7Mk-243" value="Click nút excel" style="endArrow=block;endSize=16;endFill=0;html=1;rounded=0;" parent="1" edge="1">
          <mxGeometry width="160" relative="1" as="geometry">
            <mxPoint x="3100" y="1757.13" as="sourcePoint" />
            <mxPoint x="3280" y="1757.13" as="targetPoint" />
          </mxGeometry>
        </mxCell>
        <mxCell id="9B1q4WMU_UWnrOGWX7Mk-244" value="Quản Lý" style="shape=umlActor;verticalLabelPosition=bottom;verticalAlign=top;html=1;outlineConnect=0;" parent="1" vertex="1">
          <mxGeometry x="3085" y="1645" width="30" height="60" as="geometry" />
        </mxCell>
        <mxCell id="9B1q4WMU_UWnrOGWX7Mk-245" value="" style="endArrow=none;dashed=1;html=1;rounded=0;" parent="1" source="9B1q4WMU_UWnrOGWX7Mk-244" edge="1">
          <mxGeometry width="50" height="50" relative="1" as="geometry">
            <mxPoint x="2919" y="2035" as="sourcePoint" />
            <mxPoint x="3099" y="1985" as="targetPoint" />
          </mxGeometry>
        </mxCell>
        <mxCell id="9B1q4WMU_UWnrOGWX7Mk-246" value="Trang nhà cung cấp" style="shape=umlLifeline;perimeter=lifelinePerimeter;whiteSpace=wrap;html=1;container=1;dropTarget=0;collapsible=0;recursiveResize=0;outlineConnect=0;portConstraint=eastwest;newEdgeStyle={&quot;curved&quot;:0,&quot;rounded&quot;:0};" parent="1" vertex="1">
          <mxGeometry x="3229" y="1665" width="100" height="340" as="geometry" />
        </mxCell>
        <mxCell id="9B1q4WMU_UWnrOGWX7Mk-247" value="Trang xuất excel" style="shape=umlLifeline;perimeter=lifelinePerimeter;whiteSpace=wrap;html=1;container=1;dropTarget=0;collapsible=0;recursiveResize=0;outlineConnect=0;portConstraint=eastwest;newEdgeStyle={&quot;curved&quot;:0,&quot;rounded&quot;:0};" parent="1" vertex="1">
          <mxGeometry x="3449" y="1665" width="100" height="340" as="geometry" />
        </mxCell>
        <mxCell id="9B1q4WMU_UWnrOGWX7Mk-248" value="File excel" style="shape=umlLifeline;perimeter=lifelinePerimeter;whiteSpace=wrap;html=1;container=1;dropTarget=0;collapsible=0;recursiveResize=0;outlineConnect=0;portConstraint=eastwest;newEdgeStyle={&quot;curved&quot;:0,&quot;rounded&quot;:0};" parent="1" vertex="1">
          <mxGeometry x="3829" y="1665" width="100" height="340" as="geometry" />
        </mxCell>
        <mxCell id="9B1q4WMU_UWnrOGWX7Mk-249" value="Gọi trang xuất excel nhà cung cấp" style="endArrow=block;endSize=16;endFill=0;html=1;rounded=0;" parent="1" edge="1">
          <mxGeometry width="160" relative="1" as="geometry">
            <mxPoint x="3278.5" y="1770" as="sourcePoint" />
            <mxPoint x="3498.5" y="1770" as="targetPoint" />
          </mxGeometry>
        </mxCell>
        <mxCell id="9B1q4WMU_UWnrOGWX7Mk-250" value="Phương thức xuất excel list nhà cung cấp" style="shape=umlLifeline;perimeter=lifelinePerimeter;whiteSpace=wrap;html=1;container=1;dropTarget=0;collapsible=0;recursiveResize=0;outlineConnect=0;portConstraint=eastwest;newEdgeStyle={&quot;curved&quot;:0,&quot;rounded&quot;:0};" parent="1" vertex="1">
          <mxGeometry x="3636" y="1665" width="100" height="320" as="geometry" />
        </mxCell>
        <mxCell id="9B1q4WMU_UWnrOGWX7Mk-251" value="Ghi tên file excel mới hoặc chọn file excel đã có và click vào nút save" style="endArrow=block;endSize=16;endFill=0;html=1;rounded=0;" parent="1" edge="1">
          <mxGeometry width="160" relative="1" as="geometry">
            <mxPoint x="3099" y="1831" as="sourcePoint" />
            <mxPoint x="3498.5" y="1831" as="targetPoint" />
          </mxGeometry>
        </mxCell>
        <mxCell id="9B1q4WMU_UWnrOGWX7Mk-252" value="Hiện Trang xuất excel nhà cung cấp" style="endArrow=open;endSize=12;dashed=1;html=1;rounded=0;" parent="1" source="9B1q4WMU_UWnrOGWX7Mk-247" edge="1">
          <mxGeometry width="160" relative="1" as="geometry">
            <mxPoint x="3169" y="1775" as="sourcePoint" />
            <mxPoint x="3099" y="1795" as="targetPoint" />
          </mxGeometry>
        </mxCell>
        <mxCell id="9B1q4WMU_UWnrOGWX7Mk-253" value="Gọi phương thức xuất excel" style="endArrow=block;endSize=16;endFill=0;html=1;rounded=0;" parent="1" target="9B1q4WMU_UWnrOGWX7Mk-250" edge="1">
          <mxGeometry width="160" relative="1" as="geometry">
            <mxPoint x="3499" y="1845" as="sourcePoint" />
            <mxPoint x="3659" y="1845" as="targetPoint" />
          </mxGeometry>
        </mxCell>
        <mxCell id="9B1q4WMU_UWnrOGWX7Mk-254" value="ghi đè hoặc tạo mới file" style="endArrow=block;endSize=16;endFill=0;html=1;rounded=0;" parent="1" edge="1">
          <mxGeometry width="160" relative="1" as="geometry">
            <mxPoint x="3686" y="1968" as="sourcePoint" />
            <mxPoint x="3885.5" y="1968" as="targetPoint" />
            <Array as="points">
              <mxPoint x="3716" y="1968" />
            </Array>
          </mxGeometry>
        </mxCell>
        <mxCell id="9B1q4WMU_UWnrOGWX7Mk-255" value="Thông báo xuất file thành công" style="endArrow=open;endSize=12;dashed=1;html=1;rounded=0;" parent="1" edge="1">
          <mxGeometry width="160" relative="1" as="geometry">
            <mxPoint x="3678.5" y="1998" as="sourcePoint" />
            <mxPoint x="3099" y="1998" as="targetPoint" />
          </mxGeometry>
        </mxCell>
        <mxCell id="9B1q4WMU_UWnrOGWX7Mk-256" value="xuất thành công" style="endArrow=open;endSize=12;dashed=1;html=1;rounded=0;" parent="1" edge="1">
          <mxGeometry width="160" relative="1" as="geometry">
            <mxPoint x="3881.5" y="1990" as="sourcePoint" />
            <mxPoint x="3682" y="1990" as="targetPoint" />
          </mxGeometry>
        </mxCell>
        <mxCell id="9B1q4WMU_UWnrOGWX7Mk-257" value="" style="whiteSpace=wrap;html=1;labelPosition=center;verticalLabelPosition=middle;align=center;verticalAlign=bottom;" parent="1" vertex="1">
          <mxGeometry x="3095" y="1735" width="10" height="270" as="geometry" />
        </mxCell>
        <mxCell id="9B1q4WMU_UWnrOGWX7Mk-258" value="" style="whiteSpace=wrap;html=1;labelPosition=center;verticalLabelPosition=middle;align=center;verticalAlign=bottom;" parent="1" vertex="1">
          <mxGeometry x="3274" y="1755" width="10" height="20" as="geometry" />
        </mxCell>
        <mxCell id="9B1q4WMU_UWnrOGWX7Mk-259" value="" style="whiteSpace=wrap;html=1;labelPosition=center;verticalLabelPosition=middle;align=center;verticalAlign=bottom;" parent="1" vertex="1">
          <mxGeometry x="3494" y="1765" width="10" height="80" as="geometry" />
        </mxCell>
        <mxCell id="9B1q4WMU_UWnrOGWX7Mk-260" value="" style="whiteSpace=wrap;html=1;labelPosition=center;verticalLabelPosition=middle;align=center;verticalAlign=bottom;" parent="1" vertex="1">
          <mxGeometry x="3874" y="1961" width="10" height="30" as="geometry" />
        </mxCell>
        <mxCell id="9B1q4WMU_UWnrOGWX7Mk-261" value="" style="whiteSpace=wrap;html=1;labelPosition=center;verticalLabelPosition=middle;align=center;verticalAlign=bottom;" parent="1" vertex="1">
          <mxGeometry x="3678" y="1845" width="10" height="160" as="geometry" />
        </mxCell>
        <mxCell id="9B1q4WMU_UWnrOGWX7Mk-262" value="thông báo file đang mở" style="endArrow=open;endSize=12;dashed=1;html=1;rounded=0;" parent="1" edge="1">
          <mxGeometry width="160" relative="1" as="geometry">
            <mxPoint x="3679" y="1895" as="sourcePoint" />
            <mxPoint x="3099" y="1895" as="targetPoint" />
          </mxGeometry>
        </mxCell>
        <mxCell id="9B1q4WMU_UWnrOGWX7Mk-263" value="" style="endArrow=none;dashed=1;html=1;rounded=0;exitX=-0.002;exitY=0.544;exitDx=0;exitDy=0;exitPerimeter=0;entryX=1;entryY=0.571;entryDx=0;entryDy=0;entryPerimeter=0;" parent="1" source="9B1q4WMU_UWnrOGWX7Mk-264" edge="1">
          <mxGeometry width="50" height="50" relative="1" as="geometry">
            <mxPoint x="3030.91" y="1946.21" as="sourcePoint" />
            <mxPoint x="3940" y="1944.07" as="targetPoint" />
          </mxGeometry>
        </mxCell>
        <mxCell id="9B1q4WMU_UWnrOGWX7Mk-264" value="kiểm tra file có đang mở" style="shape=umlFrame;whiteSpace=wrap;html=1;pointerEvents=0;width=100;height=30;" parent="1" vertex="1">
          <mxGeometry x="2990" y="1855" width="950" height="170" as="geometry" />
        </mxCell>
        <mxCell id="9B1q4WMU_UWnrOGWX7Mk-265" value="file chọn&lt;br&gt;&amp;nbsp;đang mở" style="text;html=1;align=center;verticalAlign=middle;resizable=0;points=[];autosize=1;strokeColor=none;fillColor=none;" parent="1" vertex="1">
          <mxGeometry x="3005" y="1898" width="70" height="40" as="geometry" />
        </mxCell>
        <mxCell id="9B1q4WMU_UWnrOGWX7Mk-266" value="else" style="text;html=1;align=center;verticalAlign=middle;resizable=0;points=[];autosize=1;strokeColor=none;fillColor=none;" parent="1" vertex="1">
          <mxGeometry x="3005" y="1963" width="50" height="30" as="geometry" />
        </mxCell>
        <mxCell id="9B1q4WMU_UWnrOGWX7Mk-267" value="xuất file excel nhà cung cấp" style="shape=umlFrame;whiteSpace=wrap;html=1;pointerEvents=0;width=200;height=30;" parent="1" vertex="1">
          <mxGeometry x="2950" y="1595" width="1030" height="460" as="geometry" />
        </mxCell>
        <mxCell id="9B1q4WMU_UWnrOGWX7Mk-268" value="" style="endArrow=none;dashed=1;html=1;rounded=0;" parent="1" edge="1">
          <mxGeometry width="50" height="50" relative="1" as="geometry">
            <mxPoint x="2800" y="2131.322354403409" as="sourcePoint" />
            <mxPoint x="2800" as="targetPoint" />
          </mxGeometry>
        </mxCell>
        <mxCell id="9B1q4WMU_UWnrOGWX7Mk-269" value="" style="endArrow=none;dashed=1;html=1;rounded=0;" parent="1" edge="1">
          <mxGeometry width="50" height="50" relative="1" as="geometry">
            <mxPoint x="4243" y="2470" as="sourcePoint" />
            <mxPoint x="4243" y="20" as="targetPoint" />
          </mxGeometry>
        </mxCell>
        <mxCell id="9B1q4WMU_UWnrOGWX7Mk-270" value="Thống Kê" style="text;html=1;align=center;verticalAlign=middle;resizable=0;points=[];autosize=1;strokeColor=none;fillColor=none;" parent="1" vertex="1">
          <mxGeometry x="4363" y="88" width="80" height="30" as="geometry" />
        </mxCell>
        <mxCell id="9B1q4WMU_UWnrOGWX7Mk-271" value="Quản Lý" style="shape=umlActor;verticalLabelPosition=bottom;verticalAlign=top;html=1;outlineConnect=0;" parent="1" vertex="1">
          <mxGeometry x="4529" y="195" width="30" height="60" as="geometry" />
        </mxCell>
        <mxCell id="9B1q4WMU_UWnrOGWX7Mk-272" value="" style="endArrow=none;dashed=1;html=1;rounded=0;" parent="1" source="9B1q4WMU_UWnrOGWX7Mk-271" edge="1">
          <mxGeometry width="50" height="50" relative="1" as="geometry">
            <mxPoint x="4363" y="585" as="sourcePoint" />
            <mxPoint x="4543" y="415" as="targetPoint" />
          </mxGeometry>
        </mxCell>
        <mxCell id="9B1q4WMU_UWnrOGWX7Mk-273" value="Trang thống kê" style="shape=umlLifeline;perimeter=lifelinePerimeter;whiteSpace=wrap;html=1;container=1;dropTarget=0;collapsible=0;recursiveResize=0;outlineConnect=0;portConstraint=eastwest;newEdgeStyle={&quot;curved&quot;:0,&quot;rounded&quot;:0};" parent="1" vertex="1">
          <mxGeometry x="4673" y="215" width="100" height="245" as="geometry" />
        </mxCell>
        <mxCell id="9B1q4WMU_UWnrOGWX7Mk-274" value="Phương thức tìm kiếm" style="shape=umlLifeline;perimeter=lifelinePerimeter;whiteSpace=wrap;html=1;container=1;dropTarget=0;collapsible=0;recursiveResize=0;outlineConnect=0;portConstraint=eastwest;newEdgeStyle={&quot;curved&quot;:0,&quot;rounded&quot;:0};" parent="1" vertex="1">
          <mxGeometry x="4893" y="215" width="100" height="245" as="geometry" />
        </mxCell>
        <mxCell id="9B1q4WMU_UWnrOGWX7Mk-275" value="Database" style="shape=umlLifeline;perimeter=lifelinePerimeter;whiteSpace=wrap;html=1;container=1;dropTarget=0;collapsible=0;recursiveResize=0;outlineConnect=0;portConstraint=eastwest;newEdgeStyle={&quot;curved&quot;:0,&quot;rounded&quot;:0};" parent="1" vertex="1">
          <mxGeometry x="5093" y="215" width="100" height="245" as="geometry" />
        </mxCell>
        <mxCell id="9B1q4WMU_UWnrOGWX7Mk-276" value="Chọn nội dung thời gian&lt;br&gt;theo ngày,tháng, năm" style="endArrow=block;endSize=16;endFill=0;html=1;rounded=0;" parent="1" edge="1">
          <mxGeometry width="160" relative="1" as="geometry">
            <mxPoint x="4543" y="285" as="sourcePoint" />
            <mxPoint x="4723" y="285" as="targetPoint" />
          </mxGeometry>
        </mxCell>
        <mxCell id="9B1q4WMU_UWnrOGWX7Mk-277" value="gọi hàm tìm kiếm thống kê theo thời gian" style="endArrow=block;endSize=16;endFill=0;html=1;rounded=0;" parent="1" edge="1">
          <mxGeometry width="160" relative="1" as="geometry">
            <mxPoint x="4722.547619047618" y="334" as="sourcePoint" />
            <mxPoint x="4942.5" y="334" as="targetPoint" />
          </mxGeometry>
        </mxCell>
        <mxCell id="9B1q4WMU_UWnrOGWX7Mk-278" value="Truy vấn cơ sở dữ liệu" style="endArrow=block;endSize=16;endFill=0;html=1;rounded=0;" parent="1" edge="1">
          <mxGeometry width="160" relative="1" as="geometry">
            <mxPoint x="4942.547619047618" y="343" as="sourcePoint" />
            <mxPoint x="5143" y="343" as="targetPoint" />
          </mxGeometry>
        </mxCell>
        <mxCell id="9B1q4WMU_UWnrOGWX7Mk-279" value="Trả về thông tin tìm được" style="endArrow=open;endSize=12;dashed=1;html=1;rounded=0;" parent="1" edge="1">
          <mxGeometry width="160" relative="1" as="geometry">
            <mxPoint x="5142.5" y="366" as="sourcePoint" />
            <mxPoint x="4942.5" y="366" as="targetPoint" />
          </mxGeometry>
        </mxCell>
        <mxCell id="9B1q4WMU_UWnrOGWX7Mk-280" value="Trả về thông tin tìm được lên trang" style="endArrow=open;endSize=12;dashed=1;html=1;rounded=0;" parent="1" edge="1">
          <mxGeometry width="160" relative="1" as="geometry">
            <mxPoint x="4942.5" y="378" as="sourcePoint" />
            <mxPoint x="4722.547619047618" y="378" as="targetPoint" />
          </mxGeometry>
        </mxCell>
        <mxCell id="9B1q4WMU_UWnrOGWX7Mk-281" value="" style="whiteSpace=wrap;html=1;labelPosition=center;verticalLabelPosition=middle;align=center;verticalAlign=bottom;" parent="1" vertex="1">
          <mxGeometry x="5138" y="338" width="10" height="30" as="geometry" />
        </mxCell>
        <mxCell id="9B1q4WMU_UWnrOGWX7Mk-282" value="Tìm kiếm thống kế&lt;br&gt;&amp;nbsp;doanh thu và khoản chi" style="shape=umlFrame;whiteSpace=wrap;html=1;pointerEvents=0;width=190;height=30;" parent="1" vertex="1">
          <mxGeometry x="4453" y="155" width="800" height="325" as="geometry" />
        </mxCell>
        <mxCell id="9B1q4WMU_UWnrOGWX7Mk-283" value="" style="whiteSpace=wrap;html=1;labelPosition=center;verticalLabelPosition=middle;align=center;verticalAlign=bottom;" parent="1" vertex="1">
          <mxGeometry x="4938" y="333" width="10" height="47.5" as="geometry" />
        </mxCell>
        <mxCell id="9B1q4WMU_UWnrOGWX7Mk-284" value="" style="whiteSpace=wrap;html=1;labelPosition=center;verticalLabelPosition=middle;align=center;verticalAlign=bottom;" parent="1" vertex="1">
          <mxGeometry x="4718" y="285" width="10" height="105" as="geometry" />
        </mxCell>
        <mxCell id="9B1q4WMU_UWnrOGWX7Mk-285" value="" style="whiteSpace=wrap;html=1;labelPosition=center;verticalLabelPosition=middle;align=center;verticalAlign=bottom;" parent="1" vertex="1">
          <mxGeometry x="4539" y="275" width="10" height="185" as="geometry" />
        </mxCell>
        <mxCell id="9B1q4WMU_UWnrOGWX7Mk-293" value="Click nút báo cáo&lt;br&gt;&amp;nbsp;DT hoặc KC" style="endArrow=block;endSize=16;endFill=0;html=1;rounded=0;" parent="1" edge="1">
          <mxGeometry x="0.0065" width="160" relative="1" as="geometry">
            <mxPoint x="4513" y="776.1300000000001" as="sourcePoint" />
            <mxPoint x="4693" y="776.1300000000001" as="targetPoint" />
            <mxPoint as="offset" />
          </mxGeometry>
        </mxCell>
        <mxCell id="9B1q4WMU_UWnrOGWX7Mk-294" value="Quản Lý" style="shape=umlActor;verticalLabelPosition=bottom;verticalAlign=top;html=1;outlineConnect=0;" parent="1" vertex="1">
          <mxGeometry x="4498" y="640" width="30" height="60" as="geometry" />
        </mxCell>
        <mxCell id="9B1q4WMU_UWnrOGWX7Mk-295" value="" style="endArrow=none;dashed=1;html=1;rounded=0;" parent="1" source="9B1q4WMU_UWnrOGWX7Mk-294" edge="1">
          <mxGeometry width="50" height="50" relative="1" as="geometry">
            <mxPoint x="4332" y="1030" as="sourcePoint" />
            <mxPoint x="4512" y="980" as="targetPoint" />
          </mxGeometry>
        </mxCell>
        <mxCell id="9B1q4WMU_UWnrOGWX7Mk-296" value="Trang thống kê" style="shape=umlLifeline;perimeter=lifelinePerimeter;whiteSpace=wrap;html=1;container=1;dropTarget=0;collapsible=0;recursiveResize=0;outlineConnect=0;portConstraint=eastwest;newEdgeStyle={&quot;curved&quot;:0,&quot;rounded&quot;:0};" parent="1" vertex="1">
          <mxGeometry x="4642" y="660" width="100" height="350" as="geometry" />
        </mxCell>
        <mxCell id="9B1q4WMU_UWnrOGWX7Mk-297" value="Trang xuất excel" style="shape=umlLifeline;perimeter=lifelinePerimeter;whiteSpace=wrap;html=1;container=1;dropTarget=0;collapsible=0;recursiveResize=0;outlineConnect=0;portConstraint=eastwest;newEdgeStyle={&quot;curved&quot;:0,&quot;rounded&quot;:0};" parent="1" vertex="1">
          <mxGeometry x="4862" y="660" width="100" height="350" as="geometry" />
        </mxCell>
        <mxCell id="9B1q4WMU_UWnrOGWX7Mk-298" value="File excel" style="shape=umlLifeline;perimeter=lifelinePerimeter;whiteSpace=wrap;html=1;container=1;dropTarget=0;collapsible=0;recursiveResize=0;outlineConnect=0;portConstraint=eastwest;newEdgeStyle={&quot;curved&quot;:0,&quot;rounded&quot;:0};" parent="1" vertex="1">
          <mxGeometry x="5242" y="660" width="100" height="350" as="geometry" />
        </mxCell>
        <mxCell id="9B1q4WMU_UWnrOGWX7Mk-299" value="Gọi trang xuất excel&amp;nbsp;" style="endArrow=block;endSize=16;endFill=0;html=1;rounded=0;" parent="1" edge="1">
          <mxGeometry width="160" relative="1" as="geometry">
            <mxPoint x="4691.5" y="785" as="sourcePoint" />
            <mxPoint x="4911.5" y="785" as="targetPoint" />
          </mxGeometry>
        </mxCell>
        <mxCell id="9B1q4WMU_UWnrOGWX7Mk-300" value="Phương thức xuất excel DT hoặc KC" style="shape=umlLifeline;perimeter=lifelinePerimeter;whiteSpace=wrap;html=1;container=1;dropTarget=0;collapsible=0;recursiveResize=0;outlineConnect=0;portConstraint=eastwest;newEdgeStyle={&quot;curved&quot;:0,&quot;rounded&quot;:0};" parent="1" vertex="1">
          <mxGeometry x="5049" y="660" width="100" height="320" as="geometry" />
        </mxCell>
        <mxCell id="9B1q4WMU_UWnrOGWX7Mk-301" value="Ghi tên file excel mới hoặc chọn file excel đã có và click vào nút save" style="endArrow=block;endSize=16;endFill=0;html=1;rounded=0;" parent="1" edge="1">
          <mxGeometry width="160" relative="1" as="geometry">
            <mxPoint x="4512" y="843" as="sourcePoint" />
            <mxPoint x="4911.5" y="843" as="targetPoint" />
          </mxGeometry>
        </mxCell>
        <mxCell id="9B1q4WMU_UWnrOGWX7Mk-302" value="Hiện Trang xuất excel&amp;nbsp;" style="endArrow=open;endSize=12;dashed=1;html=1;rounded=0;" parent="1" edge="1">
          <mxGeometry width="160" relative="1" as="geometry">
            <mxPoint x="4911.5" y="814" as="sourcePoint" />
            <mxPoint x="4512" y="814" as="targetPoint" />
          </mxGeometry>
        </mxCell>
        <mxCell id="9B1q4WMU_UWnrOGWX7Mk-303" value="Gọi phương thức xuất excel" style="endArrow=block;endSize=16;endFill=0;html=1;rounded=0;" parent="1" edge="1">
          <mxGeometry width="160" relative="1" as="geometry">
            <mxPoint x="4912" y="853" as="sourcePoint" />
            <mxPoint x="5098.5" y="853" as="targetPoint" />
          </mxGeometry>
        </mxCell>
        <mxCell id="9B1q4WMU_UWnrOGWX7Mk-304" value="ghi đè hoặc tạo mới file" style="endArrow=block;endSize=16;endFill=0;html=1;rounded=0;" parent="1" edge="1">
          <mxGeometry width="160" relative="1" as="geometry">
            <mxPoint x="5099" y="976" as="sourcePoint" />
            <mxPoint x="5298.5" y="976" as="targetPoint" />
            <Array as="points">
              <mxPoint x="5129" y="976" />
            </Array>
          </mxGeometry>
        </mxCell>
        <mxCell id="9B1q4WMU_UWnrOGWX7Mk-305" value="Thông báo xuất file thành công" style="endArrow=open;endSize=12;dashed=1;html=1;rounded=0;" parent="1" edge="1">
          <mxGeometry width="160" relative="1" as="geometry">
            <mxPoint x="5091.5" y="1006" as="sourcePoint" />
            <mxPoint x="4512" y="1006" as="targetPoint" />
          </mxGeometry>
        </mxCell>
        <mxCell id="9B1q4WMU_UWnrOGWX7Mk-306" value="xuất thành công" style="endArrow=open;endSize=12;dashed=1;html=1;rounded=0;" parent="1" edge="1">
          <mxGeometry width="160" relative="1" as="geometry">
            <mxPoint x="5294.5" y="998" as="sourcePoint" />
            <mxPoint x="5095" y="998" as="targetPoint" />
          </mxGeometry>
        </mxCell>
        <mxCell id="9B1q4WMU_UWnrOGWX7Mk-307" value="" style="whiteSpace=wrap;html=1;labelPosition=center;verticalLabelPosition=middle;align=center;verticalAlign=bottom;" parent="1" vertex="1">
          <mxGeometry x="4508" y="730" width="10" height="280" as="geometry" />
        </mxCell>
        <mxCell id="9B1q4WMU_UWnrOGWX7Mk-308" value="" style="whiteSpace=wrap;html=1;labelPosition=center;verticalLabelPosition=middle;align=center;verticalAlign=bottom;" parent="1" vertex="1">
          <mxGeometry x="4687" y="730" width="10" height="60" as="geometry" />
        </mxCell>
        <mxCell id="9B1q4WMU_UWnrOGWX7Mk-309" value="" style="whiteSpace=wrap;html=1;labelPosition=center;verticalLabelPosition=middle;align=center;verticalAlign=bottom;" parent="1" vertex="1">
          <mxGeometry x="4907" y="780" width="10" height="73" as="geometry" />
        </mxCell>
        <mxCell id="9B1q4WMU_UWnrOGWX7Mk-310" value="" style="whiteSpace=wrap;html=1;labelPosition=center;verticalLabelPosition=middle;align=center;verticalAlign=bottom;" parent="1" vertex="1">
          <mxGeometry x="5287" y="970" width="10" height="30" as="geometry" />
        </mxCell>
        <mxCell id="9B1q4WMU_UWnrOGWX7Mk-311" value="" style="whiteSpace=wrap;html=1;labelPosition=center;verticalLabelPosition=middle;align=center;verticalAlign=bottom;" parent="1" vertex="1">
          <mxGeometry x="5091" y="853" width="10" height="160" as="geometry" />
        </mxCell>
        <mxCell id="9B1q4WMU_UWnrOGWX7Mk-312" value="thông báo file đang mở" style="endArrow=open;endSize=12;dashed=1;html=1;rounded=0;" parent="1" edge="1">
          <mxGeometry width="160" relative="1" as="geometry">
            <mxPoint x="5092" y="903" as="sourcePoint" />
            <mxPoint x="4512" y="903" as="targetPoint" />
          </mxGeometry>
        </mxCell>
        <mxCell id="9B1q4WMU_UWnrOGWX7Mk-313" value="" style="endArrow=none;dashed=1;html=1;rounded=0;exitX=-0.002;exitY=0.544;exitDx=0;exitDy=0;exitPerimeter=0;entryX=1;entryY=0.571;entryDx=0;entryDy=0;entryPerimeter=0;" parent="1" source="9B1q4WMU_UWnrOGWX7Mk-314" edge="1">
          <mxGeometry width="50" height="50" relative="1" as="geometry">
            <mxPoint x="4443.91" y="954.21" as="sourcePoint" />
            <mxPoint x="5353" y="952.0699999999999" as="targetPoint" />
          </mxGeometry>
        </mxCell>
        <mxCell id="9B1q4WMU_UWnrOGWX7Mk-314" value="kiểm tra file có đang mở" style="shape=umlFrame;whiteSpace=wrap;html=1;pointerEvents=0;width=100;height=30;" parent="1" vertex="1">
          <mxGeometry x="4403" y="863" width="950" height="170" as="geometry" />
        </mxCell>
        <mxCell id="9B1q4WMU_UWnrOGWX7Mk-315" value="file chọn&lt;br&gt;&amp;nbsp;đang mở" style="text;html=1;align=center;verticalAlign=middle;resizable=0;points=[];autosize=1;strokeColor=none;fillColor=none;" parent="1" vertex="1">
          <mxGeometry x="4418" y="893" width="70" height="40" as="geometry" />
        </mxCell>
        <mxCell id="9B1q4WMU_UWnrOGWX7Mk-316" value="else" style="text;html=1;align=center;verticalAlign=middle;resizable=0;points=[];autosize=1;strokeColor=none;fillColor=none;" parent="1" vertex="1">
          <mxGeometry x="4418" y="958" width="50" height="30" as="geometry" />
        </mxCell>
        <mxCell id="9B1q4WMU_UWnrOGWX7Mk-317" value="xuất file excel &lt;br&gt;doanh thu và khoản chi" style="shape=umlFrame;whiteSpace=wrap;html=1;pointerEvents=0;width=200;height=30;" parent="1" vertex="1">
          <mxGeometry x="4363" y="590" width="1030" height="460" as="geometry" />
        </mxCell>
        <mxCell id="9B1q4WMU_UWnrOGWX7Mk-318" value="chọn thời gian&lt;br&gt;&amp;nbsp;muốn xuất excel" style="endArrow=block;endSize=16;endFill=0;html=1;rounded=0;" parent="1" edge="1">
          <mxGeometry x="0.0065" width="160" relative="1" as="geometry">
            <mxPoint x="4513" y="735.0000000000001" as="sourcePoint" />
            <mxPoint x="4693" y="735.0000000000001" as="targetPoint" />
            <mxPoint as="offset" />
          </mxGeometry>
        </mxCell>
        <mxCell id="qzbS2yAGPJnUmS0bPbmz-2" value="Hiển thị hóa đơn lên table" style="html=1;align=left;spacingLeft=2;endArrow=block;rounded=0;edgeStyle=orthogonalEdgeStyle;curved=0;rounded=0;" edge="1" parent="1" source="9B1q4WMU_UWnrOGWX7Mk-49">
          <mxGeometry relative="1" as="geometry">
            <mxPoint x="505" y="1792.49" as="sourcePoint" />
            <Array as="points">
              <mxPoint x="535" y="1810" />
              <mxPoint x="535" y="1827" />
            </Array>
            <mxPoint x="505" y="1827.51" as="targetPoint" />
          </mxGeometry>
        </mxCell>
        <mxCell id="qzbS2yAGPJnUmS0bPbmz-3" value="HIển thị khung nhập liệu" style="html=1;align=left;spacingLeft=2;endArrow=block;rounded=0;edgeStyle=orthogonalEdgeStyle;curved=0;rounded=0;" edge="1" parent="1">
          <mxGeometry relative="1" as="geometry">
            <mxPoint x="4728" y="291.24" as="sourcePoint" />
            <Array as="points">
              <mxPoint x="4758" y="291.24" />
              <mxPoint x="4758" y="308.24" />
            </Array>
            <mxPoint x="4728" y="308.75" as="targetPoint" />
          </mxGeometry>
        </mxCell>
      </root>
    </mxGraphModel>
  </diagram>
  <diagram id="N1AVHuHe4stf9JqNYSsJ" name="Class Diagram">
    <mxGraphModel dx="1213" dy="5346" grid="1" gridSize="10" guides="1" tooltips="1" connect="1" arrows="1" fold="1" page="1" pageScale="1" pageWidth="3300" pageHeight="4681" math="0" shadow="0">
      <root>
        <mxCell id="0" />
        <mxCell id="1" parent="0" />
        <mxCell id="SC0hwtt4scz29Zc4ILdf-5" value="Nhà Cung Cấp" style="swimlane;fontStyle=1;align=center;verticalAlign=top;childLayout=stackLayout;horizontal=1;startSize=26;horizontalStack=0;resizeParent=1;resizeParentMax=0;resizeLast=0;collapsible=1;marginBottom=0;whiteSpace=wrap;html=1;" vertex="1" parent="1">
          <mxGeometry x="1078" y="640" width="160" height="128" as="geometry" />
        </mxCell>
        <mxCell id="SC0hwtt4scz29Zc4ILdf-6" value="-MaNCC:String&lt;br&gt;-TenNCC:String&lt;br&gt;-Email:String&lt;br&gt;-SDT:String&lt;br&gt;-DiaChi:String&lt;br&gt;-TinhTrang:boolean" style="text;strokeColor=none;fillColor=none;align=left;verticalAlign=top;spacingLeft=4;spacingRight=4;overflow=hidden;rotatable=0;points=[[0,0.5],[1,0.5]];portConstraint=eastwest;whiteSpace=wrap;html=1;" vertex="1" parent="SC0hwtt4scz29Zc4ILdf-5">
          <mxGeometry y="26" width="160" height="94" as="geometry" />
        </mxCell>
        <mxCell id="SC0hwtt4scz29Zc4ILdf-7" value="" style="line;strokeWidth=1;fillColor=none;align=left;verticalAlign=middle;spacingTop=-1;spacingLeft=3;spacingRight=3;rotatable=0;labelPosition=right;points=[];portConstraint=eastwest;strokeColor=inherit;" vertex="1" parent="SC0hwtt4scz29Zc4ILdf-5">
          <mxGeometry y="120" width="160" height="8" as="geometry" />
        </mxCell>
        <mxCell id="SC0hwtt4scz29Zc4ILdf-9" value="Loại Hàng" style="swimlane;fontStyle=1;align=center;verticalAlign=top;childLayout=stackLayout;horizontal=1;startSize=26;horizontalStack=0;resizeParent=1;resizeParentMax=0;resizeLast=0;collapsible=1;marginBottom=0;whiteSpace=wrap;html=1;" vertex="1" parent="1">
          <mxGeometry x="1910" y="995" width="160" height="88" as="geometry" />
        </mxCell>
        <mxCell id="SC0hwtt4scz29Zc4ILdf-10" value="-MaLH:String&lt;br&gt;-TenLH:String&lt;br&gt;-TinhTrang:boolean" style="text;strokeColor=none;fillColor=none;align=left;verticalAlign=top;spacingLeft=4;spacingRight=4;overflow=hidden;rotatable=0;points=[[0,0.5],[1,0.5]];portConstraint=eastwest;whiteSpace=wrap;html=1;" vertex="1" parent="SC0hwtt4scz29Zc4ILdf-9">
          <mxGeometry y="26" width="160" height="54" as="geometry" />
        </mxCell>
        <mxCell id="SC0hwtt4scz29Zc4ILdf-11" value="" style="line;strokeWidth=1;fillColor=none;align=left;verticalAlign=middle;spacingTop=-1;spacingLeft=3;spacingRight=3;rotatable=0;labelPosition=right;points=[];portConstraint=eastwest;strokeColor=inherit;" vertex="1" parent="SC0hwtt4scz29Zc4ILdf-9">
          <mxGeometry y="80" width="160" height="8" as="geometry" />
        </mxCell>
        <mxCell id="SC0hwtt4scz29Zc4ILdf-13" value="Khuyến Mãi" style="swimlane;fontStyle=1;align=center;verticalAlign=top;childLayout=stackLayout;horizontal=1;startSize=26;horizontalStack=0;resizeParent=1;resizeParentMax=0;resizeLast=0;collapsible=1;marginBottom=0;whiteSpace=wrap;html=1;" vertex="1" parent="1">
          <mxGeometry x="1270" y="995" width="160" height="118" as="geometry" />
        </mxCell>
        <mxCell id="SC0hwtt4scz29Zc4ILdf-14" value="-MaKM:Stirng&lt;br&gt;-NgBD:Date&lt;br&gt;-NgKT:Date&lt;br&gt;-MoTa:String&lt;br&gt;-TinhTrang:boolean" style="text;strokeColor=none;fillColor=none;align=left;verticalAlign=top;spacingLeft=4;spacingRight=4;overflow=hidden;rotatable=0;points=[[0,0.5],[1,0.5]];portConstraint=eastwest;whiteSpace=wrap;html=1;" vertex="1" parent="SC0hwtt4scz29Zc4ILdf-13">
          <mxGeometry y="26" width="160" height="84" as="geometry" />
        </mxCell>
        <mxCell id="SC0hwtt4scz29Zc4ILdf-15" value="" style="line;strokeWidth=1;fillColor=none;align=left;verticalAlign=middle;spacingTop=-1;spacingLeft=3;spacingRight=3;rotatable=0;labelPosition=right;points=[];portConstraint=eastwest;strokeColor=inherit;" vertex="1" parent="SC0hwtt4scz29Zc4ILdf-13">
          <mxGeometry y="110" width="160" height="8" as="geometry" />
        </mxCell>
        <mxCell id="SC0hwtt4scz29Zc4ILdf-17" value="Khách Hàng" style="swimlane;fontStyle=1;align=center;verticalAlign=top;childLayout=stackLayout;horizontal=1;startSize=26;horizontalStack=0;resizeParent=1;resizeParentMax=0;resizeLast=0;collapsible=1;marginBottom=0;whiteSpace=wrap;html=1;" vertex="1" parent="1">
          <mxGeometry x="2078" y="638" width="160" height="128" as="geometry" />
        </mxCell>
        <mxCell id="SC0hwtt4scz29Zc4ILdf-18" value="-MaKH:String&lt;br&gt;-HoTen:String&lt;br&gt;-SDT:String&lt;br&gt;-Diem:Int&lt;br&gt;-NgSinh:Date&lt;br&gt;-TinhTrang:boolean" style="text;strokeColor=none;fillColor=none;align=left;verticalAlign=top;spacingLeft=4;spacingRight=4;overflow=hidden;rotatable=0;points=[[0,0.5],[1,0.5]];portConstraint=eastwest;whiteSpace=wrap;html=1;" vertex="1" parent="SC0hwtt4scz29Zc4ILdf-17">
          <mxGeometry y="26" width="160" height="94" as="geometry" />
        </mxCell>
        <mxCell id="SC0hwtt4scz29Zc4ILdf-19" value="" style="line;strokeWidth=1;fillColor=none;align=left;verticalAlign=middle;spacingTop=-1;spacingLeft=3;spacingRight=3;rotatable=0;labelPosition=right;points=[];portConstraint=eastwest;strokeColor=inherit;" vertex="1" parent="SC0hwtt4scz29Zc4ILdf-17">
          <mxGeometry y="120" width="160" height="8" as="geometry" />
        </mxCell>
        <mxCell id="SC0hwtt4scz29Zc4ILdf-21" value="PhieuNhap" style="swimlane;fontStyle=1;align=center;verticalAlign=top;childLayout=stackLayout;horizontal=1;startSize=26;horizontalStack=0;resizeParent=1;resizeParentMax=0;resizeLast=0;collapsible=1;marginBottom=0;whiteSpace=wrap;html=1;" vertex="1" parent="1">
          <mxGeometry x="1360" y="440" width="160" height="108" as="geometry" />
        </mxCell>
        <mxCell id="SC0hwtt4scz29Zc4ILdf-22" value="-MaPN:String&lt;br&gt;-NgLapPhieu:Timestamp&lt;br&gt;-ThanhTien:float&lt;br&gt;-TinhTrang:boolean" style="text;strokeColor=none;fillColor=none;align=left;verticalAlign=top;spacingLeft=4;spacingRight=4;overflow=hidden;rotatable=0;points=[[0,0.5],[1,0.5]];portConstraint=eastwest;whiteSpace=wrap;html=1;" vertex="1" parent="SC0hwtt4scz29Zc4ILdf-21">
          <mxGeometry y="26" width="160" height="74" as="geometry" />
        </mxCell>
        <mxCell id="SC0hwtt4scz29Zc4ILdf-23" value="" style="line;strokeWidth=1;fillColor=none;align=left;verticalAlign=middle;spacingTop=-1;spacingLeft=3;spacingRight=3;rotatable=0;labelPosition=right;points=[];portConstraint=eastwest;strokeColor=inherit;" vertex="1" parent="SC0hwtt4scz29Zc4ILdf-21">
          <mxGeometry y="100" width="160" height="8" as="geometry" />
        </mxCell>
        <mxCell id="SC0hwtt4scz29Zc4ILdf-25" value="HoaDonBanHang" style="swimlane;fontStyle=1;align=center;verticalAlign=top;childLayout=stackLayout;horizontal=1;startSize=26;horizontalStack=0;resizeParent=1;resizeParentMax=0;resizeLast=0;collapsible=1;marginBottom=0;whiteSpace=wrap;html=1;" vertex="1" parent="1">
          <mxGeometry x="1798" y="440" width="160" height="84" as="geometry" />
        </mxCell>
        <mxCell id="SC0hwtt4scz29Zc4ILdf-32" value="-MaHD:String&lt;br&gt;-NgLap:Timestamp&lt;br&gt;-ThanhTien:float" style="text;strokeColor=none;fillColor=none;align=left;verticalAlign=top;spacingLeft=4;spacingRight=4;overflow=hidden;rotatable=0;points=[[0,0.5],[1,0.5]];portConstraint=eastwest;whiteSpace=wrap;html=1;" vertex="1" parent="SC0hwtt4scz29Zc4ILdf-25">
          <mxGeometry y="26" width="160" height="44" as="geometry" />
        </mxCell>
        <mxCell id="SC0hwtt4scz29Zc4ILdf-27" value="" style="line;strokeWidth=1;fillColor=none;align=left;verticalAlign=middle;spacingTop=-1;spacingLeft=3;spacingRight=3;rotatable=0;labelPosition=right;points=[];portConstraint=eastwest;strokeColor=inherit;" vertex="1" parent="SC0hwtt4scz29Zc4ILdf-25">
          <mxGeometry y="70" width="160" height="14" as="geometry" />
        </mxCell>
        <mxCell id="SC0hwtt4scz29Zc4ILdf-35" value="HangHoa" style="swimlane;fontStyle=1;align=center;verticalAlign=top;childLayout=stackLayout;horizontal=1;startSize=26;horizontalStack=0;resizeParent=1;resizeParentMax=0;resizeLast=0;collapsible=1;marginBottom=0;whiteSpace=wrap;html=1;" vertex="1" parent="1">
          <mxGeometry x="1570" y="995" width="160" height="118" as="geometry" />
        </mxCell>
        <mxCell id="SC0hwtt4scz29Zc4ILdf-36" value="-MaHH:String&lt;br&gt;-TenHH:Stirng&lt;br&gt;-DonGiaBan:float&lt;br&gt;-DonVi:String&lt;br&gt;-TinhTrang:boolean" style="text;strokeColor=none;fillColor=none;align=left;verticalAlign=top;spacingLeft=4;spacingRight=4;overflow=hidden;rotatable=0;points=[[0,0.5],[1,0.5]];portConstraint=eastwest;whiteSpace=wrap;html=1;" vertex="1" parent="SC0hwtt4scz29Zc4ILdf-35">
          <mxGeometry y="26" width="160" height="84" as="geometry" />
        </mxCell>
        <mxCell id="SC0hwtt4scz29Zc4ILdf-37" value="" style="line;strokeWidth=1;fillColor=none;align=left;verticalAlign=middle;spacingTop=-1;spacingLeft=3;spacingRight=3;rotatable=0;labelPosition=right;points=[];portConstraint=eastwest;strokeColor=inherit;" vertex="1" parent="SC0hwtt4scz29Zc4ILdf-35">
          <mxGeometry y="110" width="160" height="8" as="geometry" />
        </mxCell>
        <mxCell id="SC0hwtt4scz29Zc4ILdf-39" value="CT_HangHoa" style="swimlane;fontStyle=1;align=center;verticalAlign=top;childLayout=stackLayout;horizontal=1;startSize=26;horizontalStack=0;resizeParent=1;resizeParentMax=0;resizeLast=0;collapsible=1;marginBottom=0;whiteSpace=wrap;html=1;" vertex="1" parent="1">
          <mxGeometry x="1570" y="769" width="160" height="118" as="geometry" />
        </mxCell>
        <mxCell id="SC0hwtt4scz29Zc4ILdf-40" value="-MaCT_HH:Stirng&lt;br&gt;-NgSX:Date&lt;br&gt;-HSD:Date&lt;br&gt;-SoLuong:float&lt;br&gt;-TinhTrang:boolean" style="text;strokeColor=none;fillColor=none;align=left;verticalAlign=top;spacingLeft=4;spacingRight=4;overflow=hidden;rotatable=0;points=[[0,0.5],[1,0.5]];portConstraint=eastwest;whiteSpace=wrap;html=1;" vertex="1" parent="SC0hwtt4scz29Zc4ILdf-39">
          <mxGeometry y="26" width="160" height="84" as="geometry" />
        </mxCell>
        <mxCell id="SC0hwtt4scz29Zc4ILdf-41" value="" style="line;strokeWidth=1;fillColor=none;align=left;verticalAlign=middle;spacingTop=-1;spacingLeft=3;spacingRight=3;rotatable=0;labelPosition=right;points=[];portConstraint=eastwest;strokeColor=inherit;" vertex="1" parent="SC0hwtt4scz29Zc4ILdf-39">
          <mxGeometry y="110" width="160" height="8" as="geometry" />
        </mxCell>
        <mxCell id="SC0hwtt4scz29Zc4ILdf-43" value="CT_PhieuNhap" style="swimlane;fontStyle=1;align=center;verticalAlign=top;childLayout=stackLayout;horizontal=1;startSize=26;horizontalStack=0;resizeParent=1;resizeParentMax=0;resizeLast=0;collapsible=1;marginBottom=0;whiteSpace=wrap;html=1;" vertex="1" parent="1">
          <mxGeometry x="1360" y="640" width="160" height="68" as="geometry" />
        </mxCell>
        <mxCell id="SC0hwtt4scz29Zc4ILdf-44" value="-SLNhap:float&lt;br&gt;-DonGiaNhap" style="text;strokeColor=none;fillColor=none;align=left;verticalAlign=top;spacingLeft=4;spacingRight=4;overflow=hidden;rotatable=0;points=[[0,0.5],[1,0.5]];portConstraint=eastwest;whiteSpace=wrap;html=1;" vertex="1" parent="SC0hwtt4scz29Zc4ILdf-43">
          <mxGeometry y="26" width="160" height="34" as="geometry" />
        </mxCell>
        <mxCell id="SC0hwtt4scz29Zc4ILdf-45" value="" style="line;strokeWidth=1;fillColor=none;align=left;verticalAlign=middle;spacingTop=-1;spacingLeft=3;spacingRight=3;rotatable=0;labelPosition=right;points=[];portConstraint=eastwest;strokeColor=inherit;" vertex="1" parent="SC0hwtt4scz29Zc4ILdf-43">
          <mxGeometry y="60" width="160" height="8" as="geometry" />
        </mxCell>
        <mxCell id="SC0hwtt4scz29Zc4ILdf-48" value="CTHD_BanHang" style="swimlane;fontStyle=1;align=center;verticalAlign=top;childLayout=stackLayout;horizontal=1;startSize=26;horizontalStack=0;resizeParent=1;resizeParentMax=0;resizeLast=0;collapsible=1;marginBottom=0;whiteSpace=wrap;html=1;" vertex="1" parent="1">
          <mxGeometry x="1800" y="640" width="160" height="68" as="geometry" />
        </mxCell>
        <mxCell id="SC0hwtt4scz29Zc4ILdf-49" value="-SLBan:float&lt;br&gt;-DonGia:float" style="text;strokeColor=none;fillColor=none;align=left;verticalAlign=top;spacingLeft=4;spacingRight=4;overflow=hidden;rotatable=0;points=[[0,0.5],[1,0.5]];portConstraint=eastwest;whiteSpace=wrap;html=1;" vertex="1" parent="SC0hwtt4scz29Zc4ILdf-48">
          <mxGeometry y="26" width="160" height="34" as="geometry" />
        </mxCell>
        <mxCell id="SC0hwtt4scz29Zc4ILdf-50" value="" style="line;strokeWidth=1;fillColor=none;align=left;verticalAlign=middle;spacingTop=-1;spacingLeft=3;spacingRight=3;rotatable=0;labelPosition=right;points=[];portConstraint=eastwest;strokeColor=inherit;" vertex="1" parent="SC0hwtt4scz29Zc4ILdf-48">
          <mxGeometry y="60" width="160" height="8" as="geometry" />
        </mxCell>
        <mxCell id="SC0hwtt4scz29Zc4ILdf-55" value="" style="endArrow=diamondThin;endFill=1;endSize=24;html=1;rounded=0;" edge="1" parent="1" source="SC0hwtt4scz29Zc4ILdf-40" target="SC0hwtt4scz29Zc4ILdf-35">
          <mxGeometry width="160" relative="1" as="geometry">
            <mxPoint x="1550" y="1019" as="sourcePoint" />
            <mxPoint x="1710" y="1019" as="targetPoint" />
          </mxGeometry>
        </mxCell>
        <mxCell id="SC0hwtt4scz29Zc4ILdf-56" value="1" style="text;html=1;align=center;verticalAlign=middle;resizable=0;points=[];autosize=1;strokeColor=none;fillColor=none;" vertex="1" parent="1">
          <mxGeometry x="1650" y="887" width="30" height="30" as="geometry" />
        </mxCell>
        <mxCell id="SC0hwtt4scz29Zc4ILdf-57" value="&lt;font style=&quot;font-size: 16px;&quot;&gt;*&lt;/font&gt;" style="text;html=1;align=center;verticalAlign=middle;resizable=0;points=[];autosize=1;strokeColor=none;fillColor=none;" vertex="1" parent="1">
          <mxGeometry x="1655" y="965" width="30" height="30" as="geometry" />
        </mxCell>
        <mxCell id="SC0hwtt4scz29Zc4ILdf-58" value="" style="endArrow=none;html=1;rounded=0;entryX=0;entryY=0.393;entryDx=0;entryDy=0;entryPerimeter=0;" edge="1" parent="1" source="SC0hwtt4scz29Zc4ILdf-13" target="SC0hwtt4scz29Zc4ILdf-36">
          <mxGeometry width="50" height="50" relative="1" as="geometry">
            <mxPoint x="1600" y="1269" as="sourcePoint" />
            <mxPoint x="1560" y="1054" as="targetPoint" />
          </mxGeometry>
        </mxCell>
        <mxCell id="SC0hwtt4scz29Zc4ILdf-60" value="" style="endArrow=diamondThin;endFill=0;endSize=24;html=1;rounded=0;exitX=0.015;exitY=0.731;exitDx=0;exitDy=0;exitPerimeter=0;" edge="1" parent="1">
          <mxGeometry width="160" relative="1" as="geometry">
            <mxPoint x="1912.3999999999996" y="1053.4740000000002" as="sourcePoint" />
            <mxPoint x="1730" y="1053" as="targetPoint" />
          </mxGeometry>
        </mxCell>
        <mxCell id="SC0hwtt4scz29Zc4ILdf-76" value="Nhân Viên" style="swimlane;fontStyle=1;align=center;verticalAlign=top;childLayout=stackLayout;horizontal=1;startSize=26;horizontalStack=0;resizeParent=1;resizeParentMax=0;resizeLast=0;collapsible=1;marginBottom=0;whiteSpace=wrap;html=1;" vertex="1" parent="1">
          <mxGeometry x="1580" y="-10" width="160" height="178" as="geometry" />
        </mxCell>
        <mxCell id="SC0hwtt4scz29Zc4ILdf-77" value="&lt;div&gt;- MaNV: String&lt;/div&gt;&lt;div&gt;- TenNV: String&lt;/div&gt;&lt;div&gt;&lt;span style=&quot;background-color: initial;&quot;&gt;- Gioitinh: String&lt;/span&gt;&lt;/div&gt;&lt;div&gt;- Email: String&lt;/div&gt;&lt;div&gt;- SDT: String&lt;/div&gt;&lt;div&gt;- Passwd: String&lt;/div&gt;&lt;div&gt;- NgSinh: Date&lt;/div&gt;&lt;div&gt;- TinhTrang: Boolean&lt;/div&gt;&lt;div&gt;- ChucVu: String&lt;/div&gt;&lt;div&gt;&lt;br&gt;&lt;/div&gt;" style="text;strokeColor=none;fillColor=none;align=left;verticalAlign=top;spacingLeft=4;spacingRight=4;overflow=hidden;rotatable=0;points=[[0,0.5],[1,0.5]];portConstraint=eastwest;whiteSpace=wrap;html=1;" vertex="1" parent="SC0hwtt4scz29Zc4ILdf-76">
          <mxGeometry y="26" width="160" height="144" as="geometry" />
        </mxCell>
        <mxCell id="SC0hwtt4scz29Zc4ILdf-78" value="" style="line;strokeWidth=1;fillColor=none;align=left;verticalAlign=middle;spacingTop=-1;spacingLeft=3;spacingRight=3;rotatable=0;labelPosition=right;points=[];portConstraint=eastwest;strokeColor=inherit;" vertex="1" parent="SC0hwtt4scz29Zc4ILdf-76">
          <mxGeometry y="170" width="160" height="8" as="geometry" />
        </mxCell>
        <mxCell id="SC0hwtt4scz29Zc4ILdf-79" value="Nhóm quyền" style="swimlane;fontStyle=1;align=center;verticalAlign=top;childLayout=stackLayout;horizontal=1;startSize=26;horizontalStack=0;resizeParent=1;resizeParentMax=0;resizeLast=0;collapsible=1;marginBottom=0;whiteSpace=wrap;html=1;" vertex="1" parent="1">
          <mxGeometry x="1280" y="44" width="160" height="88" as="geometry" />
        </mxCell>
        <mxCell id="SC0hwtt4scz29Zc4ILdf-80" value="&lt;span style=&quot;background-color: initial;&quot;&gt;-MaQuyen:String&lt;/span&gt;&lt;br&gt;&lt;span style=&quot;background-color: initial;&quot;&gt;-TenQuyen:String&lt;/span&gt;&lt;br&gt;&lt;span style=&quot;background-color: initial;&quot;&gt;-MoTa:String&lt;/span&gt;" style="text;strokeColor=none;fillColor=none;align=left;verticalAlign=top;spacingLeft=4;spacingRight=4;overflow=hidden;rotatable=0;points=[[0,0.5],[1,0.5]];portConstraint=eastwest;whiteSpace=wrap;html=1;" vertex="1" parent="SC0hwtt4scz29Zc4ILdf-79">
          <mxGeometry y="26" width="160" height="54" as="geometry" />
        </mxCell>
        <mxCell id="SC0hwtt4scz29Zc4ILdf-81" value="" style="line;strokeWidth=1;fillColor=none;align=left;verticalAlign=middle;spacingTop=-1;spacingLeft=3;spacingRight=3;rotatable=0;labelPosition=right;points=[];portConstraint=eastwest;strokeColor=inherit;" vertex="1" parent="SC0hwtt4scz29Zc4ILdf-79">
          <mxGeometry y="80" width="160" height="8" as="geometry" />
        </mxCell>
        <mxCell id="SC0hwtt4scz29Zc4ILdf-82" value="" style="endArrow=diamondThin;endFill=0;endSize=24;html=1;rounded=0;" edge="1" parent="1" source="SC0hwtt4scz29Zc4ILdf-79" target="SC0hwtt4scz29Zc4ILdf-77">
          <mxGeometry width="160" relative="1" as="geometry">
            <mxPoint x="1710" y="60" as="sourcePoint" />
            <mxPoint x="1870" y="60" as="targetPoint" />
          </mxGeometry>
        </mxCell>
        <mxCell id="SC0hwtt4scz29Zc4ILdf-83" value="1" style="text;html=1;align=center;verticalAlign=middle;resizable=0;points=[];autosize=1;strokeColor=none;fillColor=none;" vertex="1" parent="1">
          <mxGeometry x="1405" y="116" width="30" height="30" as="geometry" />
        </mxCell>
        <mxCell id="SC0hwtt4scz29Zc4ILdf-84" value="1" style="text;html=1;align=center;verticalAlign=middle;resizable=0;points=[];autosize=1;strokeColor=none;fillColor=none;" vertex="1" parent="1">
          <mxGeometry x="1405" y="170" width="30" height="30" as="geometry" />
        </mxCell>
        <mxCell id="SC0hwtt4scz29Zc4ILdf-85" value="Quản Lý" style="swimlane;fontStyle=1;align=center;verticalAlign=top;childLayout=stackLayout;horizontal=1;startSize=26;horizontalStack=0;resizeParent=1;resizeParentMax=0;resizeLast=0;collapsible=1;marginBottom=0;whiteSpace=wrap;html=1;" vertex="1" parent="1">
          <mxGeometry x="1580" y="284" width="160" height="34" as="geometry" />
        </mxCell>
        <mxCell id="SC0hwtt4scz29Zc4ILdf-86" value="" style="line;strokeWidth=1;fillColor=none;align=left;verticalAlign=middle;spacingTop=-1;spacingLeft=3;spacingRight=3;rotatable=0;labelPosition=right;points=[];portConstraint=eastwest;strokeColor=inherit;" vertex="1" parent="SC0hwtt4scz29Zc4ILdf-85">
          <mxGeometry y="26" width="160" height="8" as="geometry" />
        </mxCell>
        <mxCell id="SC0hwtt4scz29Zc4ILdf-87" value="NV Kho" style="swimlane;fontStyle=1;align=center;verticalAlign=top;childLayout=stackLayout;horizontal=1;startSize=26;horizontalStack=0;resizeParent=1;resizeParentMax=0;resizeLast=0;collapsible=1;marginBottom=0;whiteSpace=wrap;html=1;" vertex="1" parent="1">
          <mxGeometry x="1360" y="284" width="160" height="34" as="geometry" />
        </mxCell>
        <mxCell id="SC0hwtt4scz29Zc4ILdf-88" value="" style="line;strokeWidth=1;fillColor=none;align=left;verticalAlign=middle;spacingTop=-1;spacingLeft=3;spacingRight=3;rotatable=0;labelPosition=right;points=[];portConstraint=eastwest;strokeColor=inherit;" vertex="1" parent="SC0hwtt4scz29Zc4ILdf-87">
          <mxGeometry y="26" width="160" height="8" as="geometry" />
        </mxCell>
        <mxCell id="SC0hwtt4scz29Zc4ILdf-89" value="NV Bán Hàng" style="swimlane;fontStyle=1;align=center;verticalAlign=top;childLayout=stackLayout;horizontal=1;startSize=26;horizontalStack=0;resizeParent=1;resizeParentMax=0;resizeLast=0;collapsible=1;marginBottom=0;whiteSpace=wrap;html=1;" vertex="1" parent="1">
          <mxGeometry x="1798" y="284" width="160" height="34" as="geometry" />
        </mxCell>
        <mxCell id="SC0hwtt4scz29Zc4ILdf-90" value="" style="line;strokeWidth=1;fillColor=none;align=left;verticalAlign=middle;spacingTop=-1;spacingLeft=3;spacingRight=3;rotatable=0;labelPosition=right;points=[];portConstraint=eastwest;strokeColor=inherit;" vertex="1" parent="SC0hwtt4scz29Zc4ILdf-89">
          <mxGeometry y="26" width="160" height="8" as="geometry" />
        </mxCell>
        <mxCell id="SC0hwtt4scz29Zc4ILdf-91" value="" style="endArrow=block;endFill=0;endSize=12;html=1;rounded=0;entryX=0.254;entryY=0.991;entryDx=0;entryDy=0;entryPerimeter=0;exitX=0.5;exitY=0;exitDx=0;exitDy=0;" edge="1" parent="1" source="SC0hwtt4scz29Zc4ILdf-87">
          <mxGeometry width="160" relative="1" as="geometry">
            <mxPoint x="1449.3600000000001" y="284.07000000000005" as="sourcePoint" />
            <mxPoint x="1630" y="167.99799999999993" as="targetPoint" />
            <Array as="points">
              <mxPoint x="1440" y="260" />
              <mxPoint x="1629.3600000000001" y="260.07000000000005" />
            </Array>
          </mxGeometry>
        </mxCell>
        <mxCell id="SC0hwtt4scz29Zc4ILdf-92" value="" style="endArrow=block;endFill=0;endSize=12;html=1;rounded=0;" edge="1" parent="1" source="SC0hwtt4scz29Zc4ILdf-85">
          <mxGeometry width="160" relative="1" as="geometry">
            <mxPoint x="1770" y="250" as="sourcePoint" />
            <mxPoint x="1660" y="170" as="targetPoint" />
          </mxGeometry>
        </mxCell>
        <mxCell id="SC0hwtt4scz29Zc4ILdf-93" value="" style="endArrow=block;endFill=0;endSize=12;html=1;rounded=0;entryX=0.75;entryY=1;entryDx=0;entryDy=0;exitX=0.5;exitY=0;exitDx=0;exitDy=0;" edge="1" parent="1" source="SC0hwtt4scz29Zc4ILdf-89">
          <mxGeometry width="160" relative="1" as="geometry">
            <mxPoint x="1860" y="284" as="sourcePoint" />
            <mxPoint x="1690" y="168" as="targetPoint" />
            <Array as="points">
              <mxPoint x="1878" y="260" />
              <mxPoint x="1690" y="260" />
            </Array>
          </mxGeometry>
        </mxCell>
        <mxCell id="SC0hwtt4scz29Zc4ILdf-95" value="" style="endArrow=none;html=1;rounded=0;" edge="1" parent="1" source="SC0hwtt4scz29Zc4ILdf-21" target="SC0hwtt4scz29Zc4ILdf-87">
          <mxGeometry width="50" height="50" relative="1" as="geometry">
            <mxPoint x="1800" y="490" as="sourcePoint" />
            <mxPoint x="1850" y="440" as="targetPoint" />
          </mxGeometry>
        </mxCell>
        <mxCell id="SC0hwtt4scz29Zc4ILdf-96" value="" style="endArrow=none;html=1;rounded=0;" edge="1" parent="1" source="SC0hwtt4scz29Zc4ILdf-25" target="SC0hwtt4scz29Zc4ILdf-89">
          <mxGeometry width="50" height="50" relative="1" as="geometry">
            <mxPoint x="1450" y="450" as="sourcePoint" />
            <mxPoint x="1450" y="328" as="targetPoint" />
          </mxGeometry>
        </mxCell>
        <mxCell id="SC0hwtt4scz29Zc4ILdf-97" value="" style="endArrow=diamondThin;endFill=1;endSize=24;html=1;rounded=0;" edge="1" parent="1" source="SC0hwtt4scz29Zc4ILdf-43" target="SC0hwtt4scz29Zc4ILdf-21">
          <mxGeometry width="160" relative="1" as="geometry">
            <mxPoint x="1740" y="460" as="sourcePoint" />
            <mxPoint x="1900" y="460" as="targetPoint" />
          </mxGeometry>
        </mxCell>
        <mxCell id="SC0hwtt4scz29Zc4ILdf-98" value="" style="endArrow=diamondThin;endFill=1;endSize=24;html=1;rounded=0;" edge="1" parent="1" source="SC0hwtt4scz29Zc4ILdf-48" target="SC0hwtt4scz29Zc4ILdf-25">
          <mxGeometry width="160" relative="1" as="geometry">
            <mxPoint x="1450" y="650" as="sourcePoint" />
            <mxPoint x="1450" y="558" as="targetPoint" />
          </mxGeometry>
        </mxCell>
        <mxCell id="SC0hwtt4scz29Zc4ILdf-99" value="" style="endArrow=none;html=1;rounded=0;entryX=-0.014;entryY=0.115;entryDx=0;entryDy=0;entryPerimeter=0;" edge="1" parent="1" source="SC0hwtt4scz29Zc4ILdf-48" target="SC0hwtt4scz29Zc4ILdf-18">
          <mxGeometry width="50" height="50" relative="1" as="geometry">
            <mxPoint x="1450" y="450" as="sourcePoint" />
            <mxPoint x="1450" y="328" as="targetPoint" />
          </mxGeometry>
        </mxCell>
        <mxCell id="SC0hwtt4scz29Zc4ILdf-100" value="" style="endArrow=none;html=1;rounded=0;entryX=1.012;entryY=0.105;entryDx=0;entryDy=0;entryPerimeter=0;" edge="1" parent="1" source="SC0hwtt4scz29Zc4ILdf-43" target="SC0hwtt4scz29Zc4ILdf-6">
          <mxGeometry width="50" height="50" relative="1" as="geometry">
            <mxPoint x="1460" y="460" as="sourcePoint" />
            <mxPoint x="1460" y="338" as="targetPoint" />
          </mxGeometry>
        </mxCell>
        <mxCell id="SC0hwtt4scz29Zc4ILdf-101" value="" style="endArrow=none;html=1;rounded=0;" edge="1" parent="1" source="SC0hwtt4scz29Zc4ILdf-39" target="SC0hwtt4scz29Zc4ILdf-48">
          <mxGeometry width="50" height="50" relative="1" as="geometry">
            <mxPoint x="1440" y="1064" as="sourcePoint" />
            <mxPoint x="1580" y="1064" as="targetPoint" />
          </mxGeometry>
        </mxCell>
        <mxCell id="SC0hwtt4scz29Zc4ILdf-102" value="" style="endArrow=none;html=1;rounded=0;" edge="1" parent="1" source="SC0hwtt4scz29Zc4ILdf-43" target="SC0hwtt4scz29Zc4ILdf-39">
          <mxGeometry width="50" height="50" relative="1" as="geometry">
            <mxPoint x="1450" y="1074" as="sourcePoint" />
            <mxPoint x="1590" y="1074" as="targetPoint" />
          </mxGeometry>
        </mxCell>
      </root>
    </mxGraphModel>
  </diagram>
</mxfile>
